<svg width="94" height="99" viewBox="0 0 94 99" fill="none" xmlns="http://www.w3.org/2000/svg">
<path d="M71.8971 46.4504H15.1794L1 74.8092H86.0764L71.8971 46.4504Z" stroke="#A1A1A1" stroke-width="2" stroke-miterlimit="10" stroke-linecap="round" stroke-linejoin="round"/>
<path d="M86.0764 74.8088H1V97.8505H86.0764V74.8088Z" stroke="#A1A1A1" stroke-width="2" stroke-miterlimit="10" stroke-linecap="round" stroke-linejoin="round"/>
<path d="M65.331 86.3295C65.331 88.5591 63.5248 90.3654 61.2952 90.3654C59.9752 90.3654 58.8036 89.7323 58.0666 88.751C57.561 88.0767 57.2593 87.2373 57.2593 86.3295C57.2593 85.422 57.5608 84.5826 58.0666 83.9079C58.8038 82.9268 59.9752 82.2937 61.2952 82.2937C63.525 82.2937 65.331 84.1 65.331 86.3295ZM29.8159 86.3295C29.8159 87.2373 29.5148 88.0765 29.0088 88.751C28.2734 89.7323 27.1004 90.3654 25.7802 90.3654C23.5523 90.3654 21.7444 88.5591 21.7444 86.3295C21.7444 84.1002 23.5523 82.2937 25.7802 82.2937C27.1004 82.2937 28.2734 82.9268 29.0088 83.9079C29.5148 84.5826 29.8159 85.422 29.8159 86.3295Z" stroke="#A1A1A1" stroke-width="2" stroke-miterlimit="10" stroke-linecap="round" stroke-linejoin="round"/>
<path d="M57.2598 86.3301C57.2598 87.2379 57.5613 88.0771 58.067 88.7516H29.009C29.5148 88.0773 29.8161 87.2379 29.8161 86.3301C29.8161 85.4225 29.515 84.5832 29.009 83.9084H58.0669C57.5613 84.5832 57.2598 85.4225 57.2598 86.3301Z" stroke="#A1A1A1" stroke-width="2" stroke-miterlimit="10" stroke-linecap="round" stroke-linejoin="round"/>
<path d="M46.7574 46.4504H15.1794V63.9499H71.6898V46.4504H67.0262" stroke="#A1A1A1" stroke-width="2" stroke-miterlimit="10" stroke-linecap="round" stroke-linejoin="round"/>
<path d="M71.5195 63.9497H43.3493H15.1794L11.6008 74.809H43.3493H75.0979L71.5195 63.9497Z" stroke="#A1A1A1" stroke-width="2" stroke-miterlimit="10" stroke-linecap="round" stroke-linejoin="round"/>
<path d="M11.5731 40.6299L9.3009 35.6407" stroke="#A1A1A1" stroke-width="2" stroke-miterlimit="10" stroke-linecap="round" stroke-linejoin="round"/>
<path d="M14.899 39.1152L16.2576 35.4846" stroke="#A1A1A1" stroke-width="2" stroke-miterlimit="10" stroke-linecap="round" stroke-linejoin="round"/>
<path d="M8.24703 42.1452L4.61646 40.7866" stroke="#A1A1A1" stroke-width="2" stroke-miterlimit="10" stroke-linecap="round" stroke-linejoin="round"/>
<mask id="path-10-inside-1_118_1048" fill="white">
<path d="M27.6792 59.6398C27.663 59.6398 27.6465 59.6394 27.6301 59.6386C26.879 59.6028 26.1471 59.5086 25.4545 59.359C24.9065 59.2406 24.5581 58.7003 24.6766 58.1523C24.7952 57.6043 25.3353 57.2561 25.8833 57.3747C26.4671 57.5007 27.0871 57.5801 27.7265 57.6106C28.2865 57.6372 28.719 58.1129 28.6922 58.6729C28.6666 59.2164 28.2177 59.6398 27.6792 59.6398ZM31.7145 59.3102C31.2387 59.3102 30.814 58.9742 30.7194 58.4898C30.6115 57.9395 30.9703 57.4061 31.5206 57.2985C32.1311 57.1791 32.7662 57.025 33.4078 56.8409C33.9469 56.6855 34.5091 56.9974 34.6638 57.5365C34.8185 58.0753 34.5071 58.6378 33.9682 58.7925C33.2704 58.9927 32.5782 59.1606 31.9106 59.2914C31.8448 59.3039 31.7792 59.3102 31.7145 59.3102ZM21.9752 57.77C21.7699 57.77 21.5626 57.7078 21.3833 57.5789C20.774 57.1407 20.2118 56.6336 19.7125 56.0715C19.3401 55.6525 19.3781 55.0106 19.7972 54.6381C20.2162 54.2657 20.8581 54.3039 21.2304 54.7227C21.6306 55.1733 22.0808 55.5796 22.5689 55.9306C23.0241 56.2579 23.1276 56.8922 22.8003 57.3476C22.602 57.6232 22.2909 57.77 21.9752 57.77ZM18.7929 52.8083C18.2876 52.8083 17.8498 52.4312 17.7867 51.9167C17.6985 51.2002 17.6356 50.4962 17.5999 49.8248C17.57 49.2648 17.9996 48.7868 18.5596 48.757C19.1156 48.7247 19.5976 49.1568 19.6274 49.7165C19.6609 50.3415 19.7196 50.9983 19.8018 51.6688C19.8703 52.2253 19.4747 52.7319 18.9182 52.8003C18.8762 52.8056 18.8341 52.8083 18.7929 52.8083ZM18.7692 46.7369C18.7198 46.7369 18.6699 46.7333 18.6195 46.726C18.0648 46.6441 17.6817 46.128 17.7635 45.5733C17.8736 44.8283 18.0311 44.1138 18.2319 43.4495C18.3939 42.9128 18.9608 42.6087 19.4973 42.7713C20.0341 42.9336 20.3377 43.5 20.1754 44.0367C20.0033 44.6062 19.8676 45.2228 19.7722 45.8699C19.6977 46.3743 19.2642 46.7369 18.7692 46.7369ZM57.8432 44.5483C57.8146 44.5483 57.7859 44.5471 57.7569 44.5447C57.1031 44.4897 56.3969 44.3979 55.6579 44.2718C55.1052 44.1774 54.7336 43.6529 54.828 43.1003C54.9225 42.5476 55.4455 42.1752 55.9998 42.2704C56.682 42.387 57.3305 42.4714 57.9271 42.5216C58.4858 42.5685 58.9006 43.0594 58.8535 43.6182C58.8091 44.1477 58.3654 44.5483 57.8432 44.5483ZM61.8754 44.3069C61.4236 44.3069 61.0117 44.0032 60.8933 43.5455C60.753 43.0028 61.0793 42.4489 61.622 42.3086C62.2126 42.1559 62.7458 41.9338 63.2069 41.6485C63.6833 41.3535 64.3092 41.5005 64.6045 41.9772C64.8997 42.454 64.7525 43.0797 64.2757 43.3748C63.641 43.7679 62.9192 44.0706 62.1306 44.2744C62.0451 44.2964 61.9597 44.3069 61.8754 44.3069ZM51.8693 43.388C51.7814 43.388 51.6923 43.3764 51.6031 43.3524C50.9843 43.1847 50.3376 43.0002 49.6255 42.7878C49.0883 42.6276 48.7827 42.0621 48.9427 41.5249C49.1029 40.9876 49.6675 40.6816 50.2058 40.842C50.9012 41.0493 51.5321 41.2294 52.1343 41.3925C52.6754 41.5391 52.9952 42.0966 52.8488 42.6379C52.726 43.0901 52.3164 43.388 51.8693 43.388ZM46.0408 41.6164C45.9375 41.6164 45.8325 41.6006 45.729 41.5671L43.7964 40.9425C43.2628 40.7704 42.9696 40.1982 43.1418 39.6648C43.314 39.1312 43.8862 38.8378 44.4195 39.0102L46.3523 39.6347C46.8857 39.8069 47.1789 40.3791 47.0067 40.9127C46.8682 41.3425 46.4697 41.6164 46.0408 41.6164ZM21.0909 41.2024C20.8576 41.2024 20.6233 41.1224 20.4321 40.9592C20.0057 40.5949 19.9553 39.9541 20.3196 39.5279C20.8091 38.955 21.3691 38.4388 21.9843 37.9938C22.4383 37.6652 23.0732 37.7668 23.4018 38.2212C23.7305 38.6754 23.6285 39.3101 23.1743 39.6386C22.6895 39.9895 22.2483 40.3957 21.8633 40.8465C21.6627 41.0816 21.3776 41.2024 21.0909 41.2024ZM66.2546 40.4299C66.1265 40.4299 65.9963 40.4055 65.8704 40.3539C65.5896 40.239 65.3882 40.013 65.2958 39.7474C65.052 39.663 64.8095 39.5681 64.5693 39.4636C64.0554 39.2394 63.8205 38.6413 64.0445 38.1272C64.2684 37.6133 64.867 37.3779 65.3807 37.6023C65.5017 37.6551 65.6229 37.7044 65.7447 37.7507C65.7973 37.5721 65.8465 37.3958 65.8922 37.223C66.0355 36.6809 66.5904 36.3571 67.1331 36.501C67.6753 36.6444 67.9985 37.1999 67.8552 37.742C67.7951 37.969 67.7299 38.2009 67.6596 38.4358C67.8667 38.6608 67.9703 38.9763 67.913 39.3007C67.8294 39.775 67.4288 40.1139 66.9675 40.1383C66.7778 40.3245 66.521 40.4299 66.2546 40.4299ZM40.2302 39.7765C40.1338 39.7765 40.0359 39.7627 39.9388 39.7336C39.2503 39.5277 38.6191 39.346 38.0085 39.1781C37.4678 39.0295 37.1503 38.4707 37.2989 37.93C37.4475 37.3895 38.0061 37.072 38.547 37.2204C39.1719 37.3924 39.8174 37.5781 40.5205 37.7883C41.0578 37.9491 41.363 38.5148 41.2024 39.0518C41.0708 39.492 40.6671 39.7765 40.2302 39.7765ZM70.8691 39.6299C70.5008 39.6299 70.1455 39.4287 69.9654 39.0784C69.7091 38.5797 69.9057 37.9678 70.4043 37.7115C70.887 37.4636 71.3265 37.1227 71.7111 36.6982C72.0875 36.2827 72.7294 36.2505 73.1452 36.6271C73.5608 37.0035 73.5925 37.6456 73.2163 38.0612C72.667 38.6675 72.0333 39.1574 71.3326 39.5176C71.1838 39.5937 71.0252 39.6299 70.8691 39.6299ZM34.3361 38.234C34.2726 38.234 34.2082 38.2279 34.1434 38.2155C33.502 38.0922 32.8537 37.9946 32.2166 37.9251C31.6592 37.8644 31.2566 37.3633 31.3173 36.806C31.3782 36.2486 31.8795 35.8468 32.4365 35.9067C33.1282 35.9822 33.8314 36.088 34.5264 36.2216C35.077 36.3274 35.4376 36.8596 35.3318 37.4102C35.2386 37.8961 34.8133 38.234 34.3361 38.234ZM26.2667 38.1988C25.807 38.1988 25.3905 37.8847 25.2799 37.4179C25.1503 36.8724 25.4876 36.3252 26.0332 36.1956C26.7093 36.035 27.4303 35.9183 28.1765 35.8484C28.732 35.7946 29.2296 36.2062 29.2818 36.7646C29.3342 37.3227 28.9241 37.8177 28.3657 37.8699C27.7135 37.931 27.0863 38.0323 26.502 38.171C26.4232 38.1901 26.3442 38.1988 26.2667 38.1988ZM61.7418 37.1526C61.4462 37.1526 61.1532 37.024 60.9524 36.7765C60.4145 36.1126 60.0332 35.419 59.8192 34.7149L59.8009 34.6531C59.643 34.1153 59.9508 33.551 60.4888 33.3929C61.0269 33.2349 61.5911 33.5431 61.7489 34.0808L61.7621 34.1248C61.8993 34.5768 62.1576 35.0387 62.5298 35.4982C62.8827 35.9339 62.8157 36.5731 62.3801 36.9262C62.1921 37.0785 61.9661 37.1526 61.7418 37.1526ZM74.2792 34.8099C74.1933 34.8099 74.1058 34.7989 74.0189 34.7758C73.4768 34.6322 73.1537 34.0767 73.2971 33.5346C73.4479 32.9644 73.5663 32.3395 73.6487 31.677C73.7182 31.1206 74.2276 30.7267 74.7815 30.7949C75.338 30.8642 75.7329 31.3714 75.6637 31.9279C75.5699 32.6808 75.4341 33.3961 75.2601 34.0544C75.1395 34.509 74.7287 34.8099 74.2792 34.8099ZM67.3711 34.485C66.8401 34.485 66.3937 34.0722 66.3591 33.535C66.3187 32.907 66.1955 32.3685 65.9929 31.9346C65.7559 31.4266 65.9754 30.8224 66.4836 30.5854C66.9914 30.3485 67.5959 30.5679 67.833 31.0762C68.1427 31.7401 68.3286 32.5236 68.3853 33.4048C68.4214 33.9644 67.9969 34.447 67.4375 34.4832C67.4152 34.4844 67.393 34.485 67.3711 34.485ZM61.7919 31.681C61.5124 31.681 61.2344 31.5663 61.0338 31.3413C60.6606 30.9227 60.6975 30.281 61.116 29.9079C61.7676 29.3272 62.5582 28.9365 63.4025 28.7781C63.9541 28.6746 64.4839 29.0376 64.5874 29.5887C64.691 30.1397 64.3281 30.6703 63.7769 30.7736C63.3026 30.8626 62.8374 31.0934 62.4673 31.4236C62.2736 31.5961 62.0321 31.681 61.7919 31.681ZM74.8542 28.8786C74.4107 28.8786 74.1578 28.6754 74.0049 28.406C73.8648 28.2409 73.776 28.0295 73.7653 27.7964C73.76 27.6846 73.7541 27.5717 73.7474 27.4576C73.7468 27.4484 73.7462 27.4393 73.7458 27.4301C73.7368 27.2716 73.7336 27.1672 73.7336 27.1041C73.7336 26.403 74.2599 26.0249 74.7549 26.0249C75.6678 26.0249 75.7801 26.9223 75.8223 27.26C75.8412 27.4107 75.8726 27.6858 75.8726 27.8372C75.8728 28.4892 75.3551 28.8786 74.8542 28.8786Z"/>
</mask>
<path d="M27.6792 59.6398C27.663 59.6398 27.6465 59.6394 27.6301 59.6386C26.879 59.6028 26.1471 59.5086 25.4545 59.359C24.9065 59.2406 24.5581 58.7003 24.6766 58.1523C24.7952 57.6043 25.3353 57.2561 25.8833 57.3747C26.4671 57.5007 27.0871 57.5801 27.7265 57.6106C28.2865 57.6372 28.719 58.1129 28.6922 58.6729C28.6666 59.2164 28.2177 59.6398 27.6792 59.6398ZM31.7145 59.3102C31.2387 59.3102 30.814 58.9742 30.7194 58.4898C30.6115 57.9395 30.9703 57.4061 31.5206 57.2985C32.1311 57.1791 32.7662 57.025 33.4078 56.8409C33.9469 56.6855 34.5091 56.9974 34.6638 57.5365C34.8185 58.0753 34.5071 58.6378 33.9682 58.7925C33.2704 58.9927 32.5782 59.1606 31.9106 59.2914C31.8448 59.3039 31.7792 59.3102 31.7145 59.3102ZM21.9752 57.77C21.7699 57.77 21.5626 57.7078 21.3833 57.5789C20.774 57.1407 20.2118 56.6336 19.7125 56.0715C19.3401 55.6525 19.3781 55.0106 19.7972 54.6381C20.2162 54.2657 20.8581 54.3039 21.2304 54.7227C21.6306 55.1733 22.0808 55.5796 22.5689 55.9306C23.0241 56.2579 23.1276 56.8922 22.8003 57.3476C22.602 57.6232 22.2909 57.77 21.9752 57.77ZM18.7929 52.8083C18.2876 52.8083 17.8498 52.4312 17.7867 51.9167C17.6985 51.2002 17.6356 50.4962 17.5999 49.8248C17.57 49.2648 17.9996 48.7868 18.5596 48.757C19.1156 48.7247 19.5976 49.1568 19.6274 49.7165C19.6609 50.3415 19.7196 50.9983 19.8018 51.6688C19.8703 52.2253 19.4747 52.7319 18.9182 52.8003C18.8762 52.8056 18.8341 52.8083 18.7929 52.8083ZM18.7692 46.7369C18.7198 46.7369 18.6699 46.7333 18.6195 46.726C18.0648 46.6441 17.6817 46.128 17.7635 45.5733C17.8736 44.8283 18.0311 44.1138 18.2319 43.4495C18.3939 42.9128 18.9608 42.6087 19.4973 42.7713C20.0341 42.9336 20.3377 43.5 20.1754 44.0367C20.0033 44.6062 19.8676 45.2228 19.7722 45.8699C19.6977 46.3743 19.2642 46.7369 18.7692 46.7369ZM57.8432 44.5483C57.8146 44.5483 57.7859 44.5471 57.7569 44.5447C57.1031 44.4897 56.3969 44.3979 55.6579 44.2718C55.1052 44.1774 54.7336 43.6529 54.828 43.1003C54.9225 42.5476 55.4455 42.1752 55.9998 42.2704C56.682 42.387 57.3305 42.4714 57.9271 42.5216C58.4858 42.5685 58.9006 43.0594 58.8535 43.6182C58.8091 44.1477 58.3654 44.5483 57.8432 44.5483ZM61.8754 44.3069C61.4236 44.3069 61.0117 44.0032 60.8933 43.5455C60.753 43.0028 61.0793 42.4489 61.622 42.3086C62.2126 42.1559 62.7458 41.9338 63.2069 41.6485C63.6833 41.3535 64.3092 41.5005 64.6045 41.9772C64.8997 42.454 64.7525 43.0797 64.2757 43.3748C63.641 43.7679 62.9192 44.0706 62.1306 44.2744C62.0451 44.2964 61.9597 44.3069 61.8754 44.3069ZM51.8693 43.388C51.7814 43.388 51.6923 43.3764 51.6031 43.3524C50.9843 43.1847 50.3376 43.0002 49.6255 42.7878C49.0883 42.6276 48.7827 42.0621 48.9427 41.5249C49.1029 40.9876 49.6675 40.6816 50.2058 40.842C50.9012 41.0493 51.5321 41.2294 52.1343 41.3925C52.6754 41.5391 52.9952 42.0966 52.8488 42.6379C52.726 43.0901 52.3164 43.388 51.8693 43.388ZM46.0408 41.6164C45.9375 41.6164 45.8325 41.6006 45.729 41.5671L43.7964 40.9425C43.2628 40.7704 42.9696 40.1982 43.1418 39.6648C43.314 39.1312 43.8862 38.8378 44.4195 39.0102L46.3523 39.6347C46.8857 39.8069 47.1789 40.3791 47.0067 40.9127C46.8682 41.3425 46.4697 41.6164 46.0408 41.6164ZM21.0909 41.2024C20.8576 41.2024 20.6233 41.1224 20.4321 40.9592C20.0057 40.5949 19.9553 39.9541 20.3196 39.5279C20.8091 38.955 21.3691 38.4388 21.9843 37.9938C22.4383 37.6652 23.0732 37.7668 23.4018 38.2212C23.7305 38.6754 23.6285 39.3101 23.1743 39.6386C22.6895 39.9895 22.2483 40.3957 21.8633 40.8465C21.6627 41.0816 21.3776 41.2024 21.0909 41.2024ZM66.2546 40.4299C66.1265 40.4299 65.9963 40.4055 65.8704 40.3539C65.5896 40.239 65.3882 40.013 65.2958 39.7474C65.052 39.663 64.8095 39.5681 64.5693 39.4636C64.0554 39.2394 63.8205 38.6413 64.0445 38.1272C64.2684 37.6133 64.867 37.3779 65.3807 37.6023C65.5017 37.6551 65.6229 37.7044 65.7447 37.7507C65.7973 37.5721 65.8465 37.3958 65.8922 37.223C66.0355 36.6809 66.5904 36.3571 67.1331 36.501C67.6753 36.6444 67.9985 37.1999 67.8552 37.742C67.7951 37.969 67.7299 38.2009 67.6596 38.4358C67.8667 38.6608 67.9703 38.9763 67.913 39.3007C67.8294 39.775 67.4288 40.1139 66.9675 40.1383C66.7778 40.3245 66.521 40.4299 66.2546 40.4299ZM40.2302 39.7765C40.1338 39.7765 40.0359 39.7627 39.9388 39.7336C39.2503 39.5277 38.6191 39.346 38.0085 39.1781C37.4678 39.0295 37.1503 38.4707 37.2989 37.93C37.4475 37.3895 38.0061 37.072 38.547 37.2204C39.1719 37.3924 39.8174 37.5781 40.5205 37.7883C41.0578 37.9491 41.363 38.5148 41.2024 39.0518C41.0708 39.492 40.6671 39.7765 40.2302 39.7765ZM70.8691 39.6299C70.5008 39.6299 70.1455 39.4287 69.9654 39.0784C69.7091 38.5797 69.9057 37.9678 70.4043 37.7115C70.887 37.4636 71.3265 37.1227 71.7111 36.6982C72.0875 36.2827 72.7294 36.2505 73.1452 36.6271C73.5608 37.0035 73.5925 37.6456 73.2163 38.0612C72.667 38.6675 72.0333 39.1574 71.3326 39.5176C71.1838 39.5937 71.0252 39.6299 70.8691 39.6299ZM34.3361 38.234C34.2726 38.234 34.2082 38.2279 34.1434 38.2155C33.502 38.0922 32.8537 37.9946 32.2166 37.9251C31.6592 37.8644 31.2566 37.3633 31.3173 36.806C31.3782 36.2486 31.8795 35.8468 32.4365 35.9067C33.1282 35.9822 33.8314 36.088 34.5264 36.2216C35.077 36.3274 35.4376 36.8596 35.3318 37.4102C35.2386 37.8961 34.8133 38.234 34.3361 38.234ZM26.2667 38.1988C25.807 38.1988 25.3905 37.8847 25.2799 37.4179C25.1503 36.8724 25.4876 36.3252 26.0332 36.1956C26.7093 36.035 27.4303 35.9183 28.1765 35.8484C28.732 35.7946 29.2296 36.2062 29.2818 36.7646C29.3342 37.3227 28.9241 37.8177 28.3657 37.8699C27.7135 37.931 27.0863 38.0323 26.502 38.171C26.4232 38.1901 26.3442 38.1988 26.2667 38.1988ZM61.7418 37.1526C61.4462 37.1526 61.1532 37.024 60.9524 36.7765C60.4145 36.1126 60.0332 35.419 59.8192 34.7149L59.8009 34.6531C59.643 34.1153 59.9508 33.551 60.4888 33.3929C61.0269 33.2349 61.5911 33.5431 61.7489 34.0808L61.7621 34.1248C61.8993 34.5768 62.1576 35.0387 62.5298 35.4982C62.8827 35.9339 62.8157 36.5731 62.3801 36.9262C62.1921 37.0785 61.9661 37.1526 61.7418 37.1526ZM74.2792 34.8099C74.1933 34.8099 74.1058 34.7989 74.0189 34.7758C73.4768 34.6322 73.1537 34.0767 73.2971 33.5346C73.4479 32.9644 73.5663 32.3395 73.6487 31.677C73.7182 31.1206 74.2276 30.7267 74.7815 30.7949C75.338 30.8642 75.7329 31.3714 75.6637 31.9279C75.5699 32.6808 75.4341 33.3961 75.2601 34.0544C75.1395 34.509 74.7287 34.8099 74.2792 34.8099ZM67.3711 34.485C66.8401 34.485 66.3937 34.0722 66.3591 33.535C66.3187 32.907 66.1955 32.3685 65.9929 31.9346C65.7559 31.4266 65.9754 30.8224 66.4836 30.5854C66.9914 30.3485 67.5959 30.5679 67.833 31.0762C68.1427 31.7401 68.3286 32.5236 68.3853 33.4048C68.4214 33.9644 67.9969 34.447 67.4375 34.4832C67.4152 34.4844 67.393 34.485 67.3711 34.485ZM61.7919 31.681C61.5124 31.681 61.2344 31.5663 61.0338 31.3413C60.6606 30.9227 60.6975 30.281 61.116 29.9079C61.7676 29.3272 62.5582 28.9365 63.4025 28.7781C63.9541 28.6746 64.4839 29.0376 64.5874 29.5887C64.691 30.1397 64.3281 30.6703 63.7769 30.7736C63.3026 30.8626 62.8374 31.0934 62.4673 31.4236C62.2736 31.5961 62.0321 31.681 61.7919 31.681ZM74.8542 28.8786C74.4107 28.8786 74.1578 28.6754 74.0049 28.406C73.8648 28.2409 73.776 28.0295 73.7653 27.7964C73.76 27.6846 73.7541 27.5717 73.7474 27.4576C73.7468 27.4484 73.7462 27.4393 73.7458 27.4301C73.7368 27.2716 73.7336 27.1672 73.7336 27.1041C73.7336 26.403 74.2599 26.0249 74.7549 26.0249C75.6678 26.0249 75.7801 26.9223 75.8223 27.26C75.8412 27.4107 75.8726 27.6858 75.8726 27.8372C75.8728 28.4892 75.3551 28.8786 74.8542 28.8786Z" fill="#A1A1A1" stroke="#A1A1A1" stroke-width="4" mask="url(#path-10-inside-1_118_1048)"/>
<path d="M78.7079 7.39594L78.3465 9.9238L77.711 14.3724L76.8805 20.1875C76.8805 20.1875 76.8805 22.9286 74.1395 22.9286C71.3984 22.9286 71.3984 20.1875 71.3984 20.1875L70.568 14.3724L69.9325 9.9238L69.571 7.39594C69.571 7.39594 69.571 2.82751 74.1395 2.82751C78.7079 2.82751 78.7079 7.39594 78.7079 7.39594Z" stroke="#A1A1A1" stroke-width="2" stroke-miterlimit="10" stroke-linecap="round" stroke-linejoin="round"/>
<path d="M70.5679 14.3721C69.1832 15.4726 66.1924 17.4462 62.5417 17.4462C57.4809 17.4462 56.2153 12.3864 56.2153 12.3864C56.2153 12.3864 57.4809 7.32458 62.5417 7.32458C65.7071 7.32458 68.3771 8.80882 69.9324 9.92351L70.5679 14.3721ZM92.0618 12.3864C92.0618 12.3864 90.7971 17.4462 85.7373 17.4462C82.0866 17.4462 79.0958 15.4726 77.7111 14.3721L78.3466 9.92351C79.9019 8.80882 82.5721 7.32458 85.7373 7.32458C90.7969 7.32458 92.0618 12.3864 92.0618 12.3864Z" stroke="#A1A1A1" stroke-width="2" stroke-miterlimit="10" stroke-linecap="round" stroke-linejoin="round"/>
<path d="M75.9668 3.12828L76.8805 1" stroke="#A1A1A1" stroke-width="2" stroke-miterlimit="10" stroke-linecap="round" stroke-linejoin="round"/>
<path d="M72.3121 3.12828L71.3984 1" stroke="#A1A1A1" stroke-width="2" stroke-miterlimit="10" stroke-linecap="round" stroke-linejoin="round"/>
<path d="M77.0856 18.7516H71.2687" stroke="#A1A1A1" stroke-width="2" stroke-miterlimit="10" stroke-linecap="round" stroke-linejoin="round"/>
<path d="M77.5889 15.2272H70.7744" stroke="#A1A1A1" stroke-width="2" stroke-miterlimit="10" stroke-linecap="round" stroke-linejoin="round"/>
</svg>
