<svg width="21" height="20" viewBox="0 0 21 20" fill="none" xmlns="http://www.w3.org/2000/svg">
<path d="M2.107 7.14275H3.357C3.45522 7.14275 3.53558 7.0624 3.53558 6.96418V3.03561H7.46415C7.56236 3.03561 7.64272 2.95525 7.64272 2.85704V1.60704C7.64272 1.50882 7.56236 1.42847 7.46415 1.42847H3.44629C2.607 1.42847 1.92843 2.10704 1.92843 2.94632V6.96418C1.92843 7.0624 2.00879 7.14275 2.107 7.14275ZM13.5356 3.03561H17.4641V6.96418C17.4641 7.0624 17.5445 7.14275 17.6427 7.14275H18.8927C18.9909 7.14275 19.0713 7.0624 19.0713 6.96418V2.94632C19.0713 2.10704 18.3927 1.42847 17.5534 1.42847H13.5356C13.4374 1.42847 13.357 1.50882 13.357 1.60704V2.85704C13.357 2.95525 13.4374 3.03561 13.5356 3.03561ZM7.46415 16.9642H3.53558V13.0356C3.53558 12.9374 3.45522 12.857 3.357 12.857H2.107C2.00879 12.857 1.92843 12.9374 1.92843 13.0356V17.0535C1.92843 17.8928 2.607 18.5713 3.44629 18.5713H7.46415C7.56236 18.5713 7.64272 18.491 7.64272 18.3928V17.1428C7.64272 17.0445 7.56236 16.9642 7.46415 16.9642ZM18.8927 12.857H17.6427C17.5445 12.857 17.4641 12.9374 17.4641 13.0356V16.9642H13.5356C13.4374 16.9642 13.357 17.0445 13.357 17.1428V18.3928C13.357 18.491 13.4374 18.5713 13.5356 18.5713H17.5534C18.3927 18.5713 19.0713 17.8928 19.0713 17.0535V13.0356C19.0713 12.9374 18.9909 12.857 18.8927 12.857ZM19.2499 9.19632H1.74986C1.65165 9.19632 1.57129 9.27668 1.57129 9.3749V10.6249C1.57129 10.7231 1.65165 10.8035 1.74986 10.8035H19.2499C19.3481 10.8035 19.4284 10.7231 19.4284 10.6249V9.3749C19.4284 9.27668 19.3481 9.19632 19.2499 9.19632Z" fill="#A1A1A1"/>
</svg>
