<svg width="16" height="17" viewBox="0 0 16 17" fill="none" xmlns="http://www.w3.org/2000/svg">
<g clip-path="url(#clip0_724_2084)">
<path d="M15.8045 15.5933L11.8252 11.614C12.9096 10.2877 13.4428 8.59536 13.3144 6.88701C13.1861 5.17865 12.406 3.58499 11.1356 2.43565C9.86516 1.28631 8.20158 0.669228 6.48895 0.712049C4.77632 0.754871 3.14566 1.45432 1.93426 2.66571C0.72287 3.8771 0.0234252 5.50776 -0.019396 7.22039C-0.0622172 8.93303 0.554862 10.5966 1.7042 11.867C2.85354 13.1374 4.44721 13.9175 6.15556 14.0459C7.86392 14.1742 9.55625 13.641 10.8825 12.5566L14.8619 16.536C14.9876 16.6574 15.156 16.7246 15.3308 16.7231C15.5056 16.7216 15.6728 16.6515 15.7964 16.5278C15.92 16.4042 15.9901 16.237 15.9916 16.0622C15.9932 15.8874 15.926 15.719 15.8045 15.5933ZM6.66652 12.7313C5.61169 12.7313 4.58054 12.4185 3.70348 11.8325C2.82642 11.2464 2.14283 10.4135 1.73916 9.43894C1.3355 8.46441 1.22988 7.39205 1.43567 6.35748C1.64145 5.32292 2.14941 4.37261 2.89529 3.62673C3.64117 2.88085 4.59147 2.3729 5.62604 2.16711C6.6606 1.96132 7.73296 2.06694 8.7075 2.47061C9.68204 2.87428 10.515 3.55786 11.101 4.43493C11.6871 5.31199 11.9999 6.34313 11.9999 7.39797C11.9983 8.81197 11.4359 10.1676 10.436 11.1674C9.43615 12.1673 8.08052 12.7297 6.66652 12.7313Z" fill="#A1A1A1"/>
</g>
<defs>
<clipPath id="clip0_724_2084">
<rect width="16" height="16" fill="white" transform="translate(0 0.730713)"/>
</clipPath>
</defs>
</svg>
