<svg width="19" height="21" viewBox="0 0 19 21" fill="none" xmlns="http://www.w3.org/2000/svg">
<g clip-path="url(#clip0_393_312)">
<path d="M17.8335 0.985596H0.632211C0.485303 0.985596 0.366211 1.14265 0.366211 1.3364V2.97347C0.366211 3.16721 0.485303 3.32427 0.632211 3.32427H17.8335C17.9805 3.32427 18.0995 3.16721 18.0995 2.97347V1.3364C18.0995 1.14265 17.9805 0.985596 17.8335 0.985596Z" fill="white"/>
<path d="M14.2869 6.83228H0.632211C0.485303 6.83228 0.366211 6.98933 0.366211 7.18308V8.82015C0.366211 9.01389 0.485303 9.17095 0.632211 9.17095H14.2869C14.4338 9.17095 14.5529 9.01389 14.5529 8.82015V7.18308C14.5529 6.98933 14.4338 6.83228 14.2869 6.83228Z" fill="white"/>
<path d="M8.96688 12.679H0.632211C0.485303 12.679 0.366211 12.836 0.366211 13.0298V14.6668C0.366211 14.8606 0.485303 15.0176 0.632211 15.0176H8.96688C9.11379 15.0176 9.23288 14.8606 9.23288 14.6668V13.0298C9.23288 12.836 9.11379 12.679 8.96688 12.679Z" fill="white"/>
<path d="M4.53355 18.5256H0.632211C0.485303 18.5256 0.366211 18.6827 0.366211 18.8764V20.5135C0.366211 20.7073 0.485303 20.8643 0.632211 20.8643H4.53355C4.68045 20.8643 4.79955 20.7073 4.79955 20.5135V18.8764C4.79955 18.6827 4.68045 18.5256 4.53355 18.5256Z" fill="white"/>
</g>
<defs>
<clipPath id="clip0_393_312">
<rect width="17.7333" height="19.8787" fill="white" transform="translate(0.366211 0.985596)"/>
</clipPath>
</defs>
</svg>
