<svg width="12" height="12" viewBox="0 0 12 12" fill="none" xmlns="http://www.w3.org/2000/svg">
<g clip-path="url(#clip0_2353_2384)">
<path d="M4.85497 5.64524C4.76082 5.55109 4.63312 5.49819 4.49997 5.49819C4.36682 5.49819 4.23912 5.55109 4.14497 5.64524C4.05082 5.73939 3.99792 5.86709 3.99792 6.00024C3.99792 6.13339 4.05082 6.26109 4.14497 6.35524L5.64497 7.85524C5.69169 7.90158 5.7471 7.93824 5.80802 7.96313C5.86894 7.98801 5.93417 8.00062 5.99997 8.00024C6.06842 7.99807 6.13569 7.98186 6.19762 7.95262C6.25955 7.92337 6.31481 7.88172 6.35997 7.83024L9.85997 3.83024C9.94079 3.7299 9.97975 3.60225 9.96874 3.47388C9.95774 3.34552 9.8976 3.22636 9.80089 3.14125C9.70417 3.05613 9.57833 3.01164 9.44961 3.01704C9.32089 3.02244 9.19922 3.07732 9.10997 3.17024L5.99997 6.77024L4.85497 5.64524Z" fill="#22B442"/>
<path d="M10.5 5.5C10.3674 5.5 10.2402 5.55268 10.1465 5.64645C10.0527 5.74021 10 5.86739 10 6C10 7.06087 9.5786 8.07828 8.82846 8.82843C8.07831 9.57857 7.06089 10 6.00003 10C5.21007 9.99964 4.43791 9.76538 3.78091 9.32677C3.12391 8.88816 2.61149 8.26483 2.30827 7.53539C2.00505 6.80594 1.9246 6.00305 2.07707 5.22795C2.22955 4.45284 2.60811 3.74024 3.16503 3.18C3.53538 2.80469 3.97687 2.50702 4.46366 2.30441C4.95045 2.10179 5.47276 1.9983 6.00003 2C6.31975 2.002 6.63831 2.03889 6.95003 2.11C7.01526 2.13018 7.08394 2.13678 7.15182 2.1294C7.2197 2.12202 7.28535 2.10081 7.34473 2.06709C7.4041 2.03336 7.45594 1.98784 7.49704 1.93331C7.53814 1.87879 7.56764 1.81642 7.58372 1.75006C7.5998 1.68369 7.60211 1.61474 7.59052 1.54745C7.57893 1.48016 7.55368 1.41595 7.51632 1.3588C7.47897 1.30164 7.4303 1.25274 7.37332 1.21511C7.31635 1.17748 7.25226 1.15192 7.18503 1.14C6.7966 1.04862 6.39906 1.00165 6.00003 1C5.0122 1.00513 4.04802 1.30276 3.22918 1.85533C2.41033 2.40789 1.77351 3.19063 1.39909 4.10477C1.02466 5.0189 0.929408 6.02346 1.12535 6.99168C1.32128 7.9599 1.79963 8.84838 2.50003 9.545C3.42837 10.4738 4.68685 10.9969 6.00003 11C7.32611 11 8.59788 10.4732 9.53556 9.53553C10.4732 8.59785 11 7.32608 11 6C11 5.86739 10.9474 5.74021 10.8536 5.64645C10.7598 5.55268 10.6326 5.5 10.5 5.5Z" fill="#22B442"/>
</g>
<defs>
<clipPath id="clip0_2353_2384">
<rect width="12" height="12" fill="white"/>
</clipPath>
</defs>
</svg>
