<svg width="30" height="30" viewBox="0 0 30 30" fill="none" xmlns="http://www.w3.org/2000/svg">
<path d="M18.75 3.75C19.3807 3.7498 19.9882 3.98801 20.4507 4.41687C20.9132 4.84573 21.1964 5.43356 21.2438 6.0625L21.25 6.25C21.25 6.55617 21.3624 6.85167 21.5659 7.08046C21.7693 7.30926 22.0497 7.45543 22.3537 7.49125L22.5 7.5H23.75C24.7065 7.49995 25.6269 7.86541 26.3228 8.5216C27.0188 9.1778 27.4376 10.0751 27.4938 11.03L27.5 11.25V22.5C27.5001 23.4565 27.1346 24.3769 26.4784 25.0728C25.8222 25.7688 24.9249 26.1876 23.97 26.2438L23.75 26.25H6.25C5.29349 26.2501 4.37311 25.8846 3.67717 25.2284C2.98124 24.5722 2.56237 23.6749 2.50625 22.72L2.5 22.5V11.25C2.49995 10.2935 2.86541 9.37311 3.5216 8.67717C4.1778 7.98124 5.07513 7.56237 6.03 7.50625L6.25 7.5H7.5C7.83152 7.5 8.14946 7.3683 8.38388 7.13388C8.6183 6.89946 8.75 6.58152 8.75 6.25C8.7498 5.61928 8.98801 5.01179 9.41687 4.54932C9.84573 4.08684 10.4336 3.80355 11.0625 3.75625L11.25 3.75H18.75ZM15 12.5C14.0707 12.4999 13.1746 12.8449 12.4852 13.468C11.7958 14.0911 11.3623 14.948 11.2688 15.8725L11.255 16.0625L11.25 16.25L11.255 16.4375C11.2917 17.1703 11.5425 17.8762 11.9765 18.4679C12.4104 19.0595 13.0084 19.5108 13.6963 19.766C14.3842 20.0211 15.1318 20.0688 15.8466 19.9033C16.5614 19.7377 17.2119 19.366 17.7175 18.8344C18.2232 18.3028 18.5618 17.6345 18.6914 16.9123C18.8209 16.1901 18.7358 15.4458 18.4466 14.7715C18.1573 14.0972 17.6766 13.5226 17.0639 13.1189C16.4513 12.7151 15.7337 12.4999 15 12.5Z" fill="#A1A1A1"/>
</svg>
