<svg width="24" height="25" viewBox="0 0 24 25" fill="none" xmlns="http://www.w3.org/2000/svg">
<path d="M4.03564 19.6599H19.9638L11.9997 5.87402L4.03564 19.6599ZM13.1247 17.1264C13.1187 17.4207 12.9975 17.7011 12.7872 17.9071C12.5769 18.1132 12.2942 18.2286 11.9997 18.2286C11.7053 18.2286 11.4225 18.1132 11.2122 17.9071C11.0019 17.7011 10.8807 17.4207 10.8747 17.1264C10.8807 16.832 11.0019 16.5517 11.2122 16.3456C11.4225 16.1395 11.7053 16.0241 11.9997 16.0241C12.2942 16.0241 12.5769 16.1395 12.7872 16.3456C12.9975 16.5517 13.1187 16.832 13.1247 17.1264ZM12.7497 10.0014V14.3139C12.7497 14.417 12.6653 14.5014 12.5622 14.5014H11.4372C11.3341 14.5014 11.2497 14.417 11.2497 14.3139V10.0014C11.2497 9.89824 11.3341 9.81386 11.4372 9.81386H12.5622C12.6653 9.81386 12.7497 9.89824 12.7497 10.0014Z" fill="#FFEAEA"/>
<path d="M22.3993 20.3135L12.6493 3.43848C12.504 3.1877 12.2532 3.06348 12.0001 3.06348C11.747 3.06348 11.4939 3.1877 11.3509 3.43848L1.60089 20.3135C1.31261 20.815 1.67354 21.4385 2.25011 21.4385H21.7501C22.3267 21.4385 22.6876 20.815 22.3993 20.3135ZM4.03604 19.6596L12.0001 5.87363L19.9642 19.6596H4.03604Z" fill="#FF1515"/>
<path d="M10.8751 17.126C10.8751 17.4243 10.9936 17.7105 11.2046 17.9215C11.4156 18.1324 11.7017 18.251 12.0001 18.251C12.2984 18.251 12.5846 18.1324 12.7956 17.9215C13.0065 17.7105 13.1251 17.4243 13.1251 17.126C13.1251 16.8276 13.0065 16.5415 12.7956 16.3305C12.5846 16.1195 12.2984 16.001 12.0001 16.001C11.7017 16.001 11.4156 16.1195 11.2046 16.3305C10.9936 16.5415 10.8751 16.8276 10.8751 17.126ZM11.2501 10.001V14.3135C11.2501 14.4166 11.3344 14.501 11.4376 14.501H12.5626C12.6657 14.501 12.7501 14.4166 12.7501 14.3135V10.001C12.7501 9.89785 12.6657 9.81348 12.5626 9.81348H11.4376C11.3344 9.81348 11.2501 9.89785 11.2501 10.001Z" fill="#FF1515"/>
</svg>
