<svg width="42" height="42" viewBox="0 0 42 42" fill="none" xmlns="http://www.w3.org/2000/svg">
<path d="M26.25 5.25C27.133 5.24972 27.9835 5.58321 28.631 6.18362C29.2784 6.78403 29.675 7.60698 29.7413 8.4875L29.75 8.75C29.7501 9.17863 29.9074 9.59234 30.1923 9.91265C30.4771 10.233 30.8696 10.4376 31.2952 10.4878L31.5 10.5H33.25C34.5891 10.4999 35.8777 11.0116 36.852 11.9302C37.8263 12.8489 38.4127 14.1052 38.4913 15.442L38.5 15.75V31.5C38.5001 32.8391 37.9884 34.1276 37.0698 35.102C36.1511 36.0763 34.8948 36.6627 33.558 36.7413L33.25 36.75H8.75C7.41088 36.7501 6.12235 36.2384 5.14804 35.3198C4.17374 34.4011 3.58731 33.1448 3.50875 31.808L3.5 31.5V15.75C3.49993 14.4109 4.01157 13.1223 4.93025 12.148C5.84892 11.1737 7.10519 10.5873 8.442 10.5087L8.75 10.5H10.5C10.9641 10.5 11.4092 10.3156 11.7374 9.98744C12.0656 9.65925 12.25 9.21413 12.25 8.75C12.2497 7.86699 12.5832 7.01651 13.1836 6.36904C13.784 5.72157 14.607 5.32498 15.4875 5.25875L15.75 5.25H26.25ZM21 17.5C19.699 17.4999 18.4444 17.9828 17.4792 18.8552C16.5141 19.7275 15.9072 20.9271 15.7763 22.2215L15.757 22.4875L15.75 22.75L15.757 23.0125C15.8084 24.0384 16.1595 25.0267 16.7671 25.855C17.3746 26.6833 18.2117 27.3151 19.1748 27.6723C20.1379 28.0295 21.1846 28.0964 22.1853 27.8646C23.186 27.6327 24.0967 27.1125 24.8046 26.3682C25.5125 25.6239 25.9865 24.6882 26.1679 23.6772C26.3493 22.6662 26.2302 21.6241 25.8252 20.6801C25.4202 19.7361 24.7472 18.9317 23.8895 18.3664C23.0318 17.8012 22.0272 17.4999 21 17.5Z" fill="#A1A1A1"/>
</svg>
