<svg width="280" height="280" viewBox="0 0 280 280" fill="none" xmlns="http://www.w3.org/2000/svg">
<path d="M185.124 44.1072C185.124 44.1072 151.514 86.6801 97.7377 61.2852C43.9616 35.8904 -9.8139 104.605 36.4926 146.431C82.7992 188.257 37.4848 211.241 68.9446 236.874C104.701 266.008 135.83 206.93 164.211 220.374C226.851 250.045 273.257 238.299 262.801 203.942C244.446 143.633 220.975 139.71 238.901 108.34C256.826 76.9699 217.264 11.7457 185.124 44.1072Z" fill="#F7E1D9"/>
<path d="M181.727 121.939C181.727 121.939 215.933 119.718 218.599 85.9556C215.489 83.7344 211.047 70.4074 218.599 69.0747C226.151 67.7421 231.481 69.0747 231.481 69.0747C231.481 69.0747 245.253 79.7363 227.928 87.7325C227.483 92.175 227.039 131.712 191.5 149.037C155.961 166.363 181.727 121.939 181.727 121.939Z" fill="#EF5A24" fill-opacity="0.5"/>
<path d="M238.214 47.3905L224.5 44.8916C223.74 44.753 223.011 45.2573 222.872 46.0179L217.931 73.1359C217.792 73.8966 218.296 74.6256 219.057 74.7642L232.771 77.2631C233.532 77.4017 234.261 76.8974 234.399 76.1367L239.341 49.0188C239.479 48.2581 238.975 47.5291 238.214 47.3905Z" fill="#455A64"/>
<path d="M198.928 146.443C198.928 165.261 190.595 182.142 177.41 193.603C166.06 203.453 151.532 208.868 136.504 208.849C114.31 208.849 94.8349 197.281 83.7646 179.831C77.7922 170.39 74.4625 159.519 74.1226 148.353C73.7828 137.186 76.4453 126.133 81.8325 116.346C87.2197 106.559 95.1342 98.3972 104.75 92.711C114.367 87.0248 125.333 84.023 136.504 84.0186C165.451 84.0186 189.813 103.725 196.849 130.468C198.24 135.679 198.939 141.05 198.928 146.443Z" fill="#E16E44" fill-opacity="0.5"/>
<path d="M177.41 193.602C166.06 203.453 151.532 208.868 136.504 208.848C114.31 208.848 94.835 197.28 83.7646 179.831C93.5023 171.852 98.993 172.705 102.654 174.074C106.652 175.584 108.873 182.354 120.423 175.691C131.973 169.027 141.302 185.02 145.744 187.685C163.514 186.406 172.772 190.191 177.41 193.602Z" fill="#EF5A24"/>
<path d="M196.85 130.468C170.462 136.723 172.328 121.707 169.734 112.609C167.068 103.281 165.291 106.39 148.854 119.273C132.418 132.157 130.64 111.277 130.339 107.723C130.019 104.17 129.308 102.837 120.868 103.885C112.427 104.933 110.206 98.3944 103.098 102.837C100.148 104.685 96.1325 103.85 92.4541 102.233C98.236 96.4462 105.104 91.8584 112.663 88.7328C120.222 85.6072 128.325 84.0051 136.505 84.0186C165.451 84.0184 189.813 103.725 196.85 130.468Z" fill="#EF5A24"/>
<path d="M83.4985 79.3285C83.2127 80.2933 83.2196 81.3212 83.518 82.2822C83.8165 83.2431 84.3932 84.094 85.1752 84.7272C85.9573 85.3604 86.9095 85.7475 87.9115 85.8395C88.9135 85.9315 89.9204 85.7243 90.8046 85.2442C91.6889 84.764 92.411 84.0324 92.8794 83.1419C93.3479 82.2513 93.5419 81.2419 93.4367 80.2412C93.3315 79.2404 92.9319 78.2934 92.2884 77.5197C91.645 76.7461 90.7866 76.1806 89.8218 75.8948C88.528 75.5118 87.135 75.6584 85.9492 76.3023C84.7633 76.9462 83.8818 78.0347 83.4985 79.3285Z" fill="#EF5A24" fill-opacity="0.8"/>
<path d="M80.8864 66.9785C79.0717 67.9574 77.4693 69.2867 76.172 70.8893C74.8747 72.4919 73.9083 74.336 73.3288 76.3148C73.2161 76.6902 73.1787 77.0841 73.2186 77.4741C73.2586 77.864 73.3751 78.2421 73.5615 78.5869C73.7479 78.9317 74.0006 79.2363 74.305 79.4832C74.6094 79.7301 74.9595 79.9145 75.3353 80.0258C75.7111 80.137 76.1052 80.173 76.495 80.1317C76.8847 80.0903 77.2625 79.9724 77.6066 79.7848C77.9507 79.5971 78.2543 79.3433 78.5001 79.038C78.7459 78.7327 78.929 78.3819 79.039 78.0057C79.4019 76.7794 80.0029 75.6365 80.8076 74.6425C81.6123 73.6485 82.6049 72.8227 83.7288 72.2124C84.8527 71.602 86.0858 71.2191 87.3577 71.0854C88.6297 70.9517 89.9154 71.0699 91.1417 71.4333C91.5171 71.5459 91.911 71.5834 92.3009 71.5434C92.6908 71.5035 93.069 71.387 93.4138 71.2005C93.7586 71.0141 94.0631 70.7615 94.31 70.4571C94.557 70.1527 94.7413 69.8025 94.8526 69.4267C94.9639 69.0509 94.9999 68.6568 94.9586 68.2671C94.9172 67.8773 94.7993 67.4996 94.6116 67.1555C94.424 66.8114 94.1702 66.5077 93.8649 66.2619C93.5596 66.0161 93.2088 65.833 92.8326 65.7231C90.8573 65.1318 88.7843 64.9382 86.7337 65.1537C84.6831 65.3692 82.6956 65.9894 80.8864 66.9785Z" fill="#EF5A24" fill-opacity="0.8"/>
<path d="M76.2061 58.3613C73.2575 59.9521 70.6538 62.1119 68.5456 64.7158C66.4374 67.3197 64.8667 70.3159 63.9243 73.531C63.7001 74.2882 63.7858 75.1035 64.1627 75.7975C64.5396 76.4915 65.1767 77.0074 65.9339 77.2316C66.6911 77.4559 67.5064 77.3701 68.2004 76.9932C68.8944 76.6164 69.4103 75.9793 69.6345 75.222C70.3631 72.7609 71.5693 70.4674 73.1844 68.4724C74.7994 66.4775 76.7916 64.8202 79.0472 63.5953C81.3028 62.3704 83.7776 61.6018 86.3303 61.3334C88.883 61.065 91.4635 61.3021 93.9245 62.0311C94.2999 62.1438 94.6939 62.1812 95.0838 62.1413C95.4737 62.1013 95.8519 61.9848 96.1966 61.7984C96.5414 61.612 96.846 61.3593 97.0929 61.0549C97.3398 60.7505 97.5242 60.4004 97.6355 60.0246C97.7468 59.6487 97.7828 59.2547 97.7414 58.8649C97.7001 58.4752 97.5821 58.0974 97.3945 57.7533C97.2068 57.4092 96.953 57.1056 96.6478 56.8598C96.3425 56.614 95.9916 56.4308 95.6154 56.3209C92.406 55.3605 89.038 55.0464 85.7064 55.3966C82.3747 55.7468 79.1456 56.7545 76.2061 58.3613Z" fill="#EF5A24" fill-opacity="0.8"/>
<path d="M98.4079 46.8981C93.9594 45.5804 89.295 45.1519 84.681 45.637C80.0669 46.1222 75.5936 47.5114 71.5165 49.7256C67.4395 51.9397 63.8385 54.9352 60.9192 58.5411C57.9999 62.1471 55.8195 66.2927 54.5026 70.7414C54.3899 71.1168 54.3525 71.5107 54.3925 71.9006C54.4324 72.2905 54.5489 72.6687 54.7353 73.0135C54.9217 73.3583 55.1744 73.6628 55.4788 73.9098C55.7832 74.1567 56.1333 74.341 56.5091 74.4523C56.885 74.5636 57.279 74.5996 57.6688 74.5583C58.0586 74.5169 58.4363 74.399 58.7804 74.2113C59.1245 74.0237 59.4282 73.7699 59.674 73.4646C59.9198 73.1593 60.1029 72.8085 60.2128 72.4323C61.3076 68.7336 63.1203 65.2869 65.5473 62.2889C67.9744 59.2909 70.9682 56.8004 74.3579 54.9596C77.7476 53.1188 81.4667 51.9638 85.3029 51.5605C89.139 51.1572 93.017 51.5136 96.7154 52.6093C97.4715 52.8296 98.2841 52.7414 98.9754 52.3642C99.6667 51.9869 100.18 51.3511 100.404 50.5961C100.628 49.841 100.544 49.028 100.169 48.335C99.7953 47.642 99.1619 47.1253 98.4079 46.8981Z" fill="#EF5A24" fill-opacity="0.8"/>
</svg>
