<svg width="24" height="24" viewBox="0 0 24 24" fill="none" xmlns="http://www.w3.org/2000/svg">
<g clip-path="url(#clip0_2302_26545)">
<path d="M22.56 16.3L14.89 3.58C14.5799 3.09481 14.1526 2.69552 13.6475 2.41894C13.1424 2.14235 12.5758 1.99738 12 1.99738C11.4242 1.99738 10.8576 2.14235 10.3525 2.41894C9.84746 2.69552 9.42015 3.09481 9.11001 3.58L1.44001 16.3C1.16906 16.7517 1.0218 17.2667 1.01302 17.7933C1.00424 18.3199 1.13426 18.8396 1.39001 19.3C1.68569 19.8183 2.11367 20.2487 2.63021 20.5474C3.14675 20.8461 3.73333 21.0023 4.33001 21H19.67C20.2628 21.0063 20.8467 20.8562 21.3629 20.5647C21.8791 20.2733 22.3093 19.8508 22.61 19.34C22.8733 18.8748 23.0074 18.3477 22.9986 17.8132C22.9899 17.2787 22.8384 16.7563 22.56 16.3ZM20.86 18.35C20.7398 18.5566 20.5654 18.7264 20.3557 18.8409C20.1459 18.9555 19.9088 19.0105 19.67 19H4.33001C4.09123 19.0105 3.85412 18.9555 3.64437 18.8409C3.43461 18.7264 3.26019 18.5566 3.14001 18.35C3.05224 18.198 3.00603 18.0255 3.00603 17.85C3.00603 17.6745 3.05224 17.502 3.14001 17.35L10.82 4.62C10.958 4.4377 11.1364 4.28986 11.3411 4.18807C11.5458 4.08628 11.7714 4.03331 12 4.03331C12.2286 4.03331 12.4542 4.08628 12.6589 4.18807C12.8636 4.28986 13.042 4.4377 13.18 4.62L20.85 17.34C20.9412 17.4923 20.9901 17.6661 20.9919 17.8436C20.9937 18.0211 20.9481 18.1959 20.86 18.35Z" fill="#FFA500"/>
<path d="M12 17C12.5523 17 13 16.5523 13 16C13 15.4477 12.5523 15 12 15C11.4477 15 11 15.4477 11 16C11 16.5523 11.4477 17 12 17Z" fill="#FFA500"/>
<path d="M12 8C11.7348 8 11.4804 8.10536 11.2929 8.29289C11.1054 8.48043 11 8.73478 11 9V13C11 13.2652 11.1054 13.5196 11.2929 13.7071C11.4804 13.8946 11.7348 14 12 14C12.2652 14 12.5196 13.8946 12.7071 13.7071C12.8946 13.5196 13 13.2652 13 13V9C13 8.73478 12.8946 8.48043 12.7071 8.29289C12.5196 8.10536 12.2652 8 12 8Z" fill="#FFA500"/>
</g>
<defs>
<clipPath id="clip0_2302_26545">
<rect width="24" height="24" fill="white"/>
</clipPath>
</defs>
</svg>
