<svg width="16" height="16" viewBox="0 0 16 16" fill="none" xmlns="http://www.w3.org/2000/svg">
<path d="M15.7313 6.21527H11.1598C11.0813 6.21527 11.017 6.27956 11.017 6.35813V7.21527C11.017 7.29385 11.0813 7.35813 11.1598 7.35813H15.7313C15.8098 7.35813 15.8741 7.29385 15.8741 7.21527V6.35813C15.8741 6.27956 15.8098 6.21527 15.7313 6.21527ZM13.3384 8.64385H11.1598C11.0813 8.64385 11.017 8.70813 11.017 8.7867V9.64385C11.017 9.72242 11.0813 9.7867 11.1598 9.7867H13.3384C13.417 9.7867 13.4813 9.72242 13.4813 9.64385V8.7867C13.4813 8.70813 13.417 8.64385 13.3384 8.64385ZM7.37948 4.61706H6.60627C6.49555 4.61706 6.40627 4.70635 6.40627 4.81706V9.24563C6.40627 9.30992 6.43662 9.36885 6.48841 9.40635L9.14734 11.3456C9.23662 11.4099 9.36162 11.3921 9.42591 11.3028L9.88484 10.676V10.6742C9.94912 10.5849 9.92948 10.4599 9.8402 10.3956L7.5777 8.75992V4.81706C7.57948 4.70635 7.48841 4.61706 7.37948 4.61706Z" fill="#EF5A24"/>
<path d="M13.2283 10.8876H12.1962C12.0962 10.8876 12.0015 10.9394 11.9479 11.0251C11.7208 11.3851 11.4543 11.7187 11.1533 12.0197C10.6351 12.5397 10.0207 12.9539 9.34438 13.2394C8.64259 13.5358 7.89795 13.6858 7.13009 13.6858C6.36045 13.6858 5.6158 13.5358 4.9158 13.2394C4.23902 12.9537 3.63009 12.543 3.10688 12.0197C2.58366 11.4965 2.17295 10.8876 1.88723 10.2108C1.5908 9.51081 1.4408 8.76617 1.4408 7.99653C1.4408 7.22688 1.5908 6.48403 1.88723 5.78224C2.17295 5.10546 2.58366 4.49653 3.10688 3.97331C3.63009 3.4501 4.23902 3.03938 4.9158 2.75367C5.6158 2.45724 6.36223 2.30724 7.13009 2.30724C7.89973 2.30724 8.64438 2.45724 9.34438 2.75367C10.0212 3.03938 10.6301 3.4501 11.1533 3.97331C11.4543 4.27433 11.7208 4.60793 11.9479 4.96796C12.0015 5.05367 12.0962 5.10546 12.1962 5.10546H13.2283C13.3515 5.10546 13.4301 4.97688 13.3747 4.86796C12.2104 2.55188 9.84973 1.04653 7.21402 1.01617C3.35509 0.967955 0.149733 4.12688 0.14259 7.98224C0.135447 11.8447 3.2658 14.9787 7.1283 14.9787C9.79795 14.9787 12.1979 13.468 13.3747 11.1251C13.3873 11.1001 13.3932 11.0723 13.392 11.0444C13.3908 11.0165 13.3825 10.9893 13.3678 10.9655C13.3531 10.9417 13.3326 10.922 13.3082 10.9084C13.2838 10.8948 13.2563 10.8876 13.2283 10.8876Z" fill="#EF5A24"/>
</svg>
