<svg width="16" height="16" viewBox="0 0 16 16" fill="none" xmlns="http://www.w3.org/2000/svg">
<path d="M10.25 3.25V5.25H14.6768L14.7305 5.41895L14.7314 5.42285L15.7314 8.42285L15.7334 8.42969L15.7363 8.43652L15.75 8.4707V12.25H14.2285L14.1797 12.4375C13.9838 13.1918 13.3067 13.75 12.5 13.75C11.6933 13.75 11.0162 13.1918 10.8203 12.4375L10.7715 12.25H6.22852L6.17969 12.4375C5.98381 13.1918 5.30666 13.75 4.5 13.75C3.69334 13.75 3.01619 13.1918 2.82031 12.4375L2.77148 12.25H1.25V9.25H1.75V11.75H2.77148L2.82031 11.5625C3.01619 10.8082 3.69334 10.25 4.5 10.25C5.30666 10.25 5.98381 10.8082 6.17969 11.5625L6.22852 11.75H9.75V3.75H0.25V3.25H10.25ZM4.5 10.75C3.80343 10.75 3.25 11.3034 3.25 12C3.25 12.6966 3.80343 13.25 4.5 13.25C5.19657 13.25 5.75 12.6966 5.75 12C5.75 11.3034 5.19657 10.75 4.5 10.75ZM12.5 10.75C11.8034 10.75 11.25 11.3034 11.25 12C11.25 12.6966 11.8034 13.25 12.5 13.25C13.1966 13.25 13.75 12.6966 13.75 12C13.75 11.3034 13.1966 10.75 12.5 10.75ZM3.75 7.25V7.75H1.25V7.25H3.75ZM4.75 5.25V5.75H0.75V5.25H4.75ZM15.25 8.52148L15.2373 8.4834L14.3779 5.9209L14.3203 5.75H10.25V11.75H10.7715L10.8203 11.5625C11.0162 10.8082 11.6933 10.25 12.5 10.25C13.3067 10.25 13.9838 10.8082 14.1797 11.5625L14.2285 11.75H15.25V8.52148Z" fill="black" stroke="#205507" stroke-width="0.5"/>
</svg>
