<svg width="24" height="24" viewBox="0 0 24 24" fill="none" xmlns="http://www.w3.org/2000/svg">
<circle cx="12" cy="12" r="12" fill="#FFAC13" fill-opacity="0.1"/>
<path d="M17 4V20H7V4H17ZM16 5H8V19H16V5ZM14.5 13C14.3646 13 14.2474 12.9505 14.1484 12.8516C14.0495 12.7526 14 12.6354 14 12.5C14 12.3646 14.0495 12.2474 14.1484 12.1484C14.2474 12.0495 14.3646 12 14.5 12C14.6354 12 14.7526 12.0495 14.8516 12.1484C14.9505 12.2474 15 12.3646 15 12.5C15 12.6354 14.9505 12.7526 14.8516 12.8516C14.7526 12.9505 14.6354 13 14.5 13Z" fill="#FFAC13"/>
</svg>
