<svg width="20" height="20" viewBox="0 0 20 20" fill="none" xmlns="http://www.w3.org/2000/svg">
<path d="M10.7957 0.662411C10.627 0.812411 9.31445 3.4171 9.31445 3.4171L8.33789 7.35616L12.1379 7.00772C12.1379 7.00772 15.2988 1.1296 15.3629 0.993661C15.477 0.746786 15.5379 0.645224 15.102 0.645224C14.666 0.643661 10.9535 0.521786 10.7957 0.662411Z" fill="#176CC7"/>
<path d="M12.7627 6.7637C12.5736 6.66213 7.00487 6.57463 6.87362 6.7637C6.75487 6.93557 6.77206 7.72151 6.82987 7.82307C6.88768 7.92463 8.75956 8.79495 8.75956 8.79495L8.758 9.11213C8.758 9.11213 8.86112 9.36057 9.90487 9.36057C10.9486 9.36057 11.0564 9.14963 11.0564 9.14963L11.0658 8.82932C11.0658 8.82932 12.7049 8.01057 12.7908 7.9387C12.8783 7.86526 12.9517 6.86526 12.7627 6.7637ZM11.0471 8.06526C11.0471 8.06526 11.0424 7.84651 10.9346 7.79182C10.8267 7.73713 9.09081 7.74651 8.94393 7.75432C8.79706 7.76213 8.79706 8.02463 8.79706 8.02463L7.60956 7.44651V7.33088L12.0314 7.36213L12.0392 7.49338L11.0471 8.06526Z" fill="#FCC417"/>
<path d="M9.25957 7.99512C9.1127 7.99512 9.02832 8.14824 9.02832 8.4123C9.02832 8.65918 9.1127 8.86699 9.29863 8.85137C9.45176 8.83887 9.50488 8.60449 9.49082 8.39668C9.47676 8.14981 9.44551 7.99512 9.25957 7.99512Z" fill="#FDFFFF"/>
<path d="M4.52832 14.1746C4.52832 17.9183 7.9127 19.5855 10.1627 19.5058C12.6439 19.4167 15.6158 17.4824 15.4361 13.9105C15.2658 10.5261 12.4189 8.92143 9.95332 8.93861C7.0877 8.95893 4.52832 10.9042 4.52832 14.1746Z" fill="#FCC417"/>
<path d="M10.0829 18.8551C10.0438 18.8551 10.0032 18.8551 9.96412 18.8535C8.79225 18.8145 7.63443 18.3207 6.78756 17.5004C5.88131 16.6223 5.38443 15.4348 5.39068 14.1582C5.40475 11.041 8.12975 9.5957 9.97818 9.5957H9.99381C12.4985 9.60664 14.5547 11.5535 14.6126 14.1926C14.6376 15.3676 14.1563 16.6004 13.2126 17.5285C12.3313 18.3926 11.1626 18.8551 10.0829 18.8551ZM9.97506 10.1145C8.31725 10.1145 5.86568 11.4707 5.85943 14.1582C5.85475 16.1676 7.411 18.2332 10.0032 18.3207C10.9907 18.352 12.0079 17.9738 12.8297 17.166C13.6829 16.327 14.1626 15.2457 14.1454 14.1988C14.1079 11.9285 12.2516 10.1223 9.9985 10.1129C9.99225 10.1129 9.97975 10.1145 9.97506 10.1145Z" fill="#FA912C"/>
<path d="M9.03467 9.47005C8.92685 9.32162 7.70498 9.34974 6.55029 10.4779C5.43623 11.5669 5.31592 12.5935 5.52998 12.6529C5.77217 12.7201 6.06748 11.6326 7.08779 10.7185C8.02529 9.88099 9.25029 9.76537 9.03467 9.47005ZM13.7612 13.5122C13.3847 13.5654 13.7753 14.6935 12.9019 15.956C12.144 17.0513 11.2847 17.4482 11.3847 17.6888C11.519 18.0107 12.8956 17.2091 13.5331 15.9029C14.1112 14.7201 14.0425 13.4716 13.7612 13.5122Z" fill="#FEFFFA"/>
<path d="M8.7268 12.034C8.64555 12.1543 8.71899 13.209 8.76743 13.2559C8.86118 13.3496 9.57368 13.0137 9.57368 13.0137L9.54711 15.834C9.54711 15.834 9.02368 15.8278 8.96899 15.8481C8.86118 15.8887 8.87524 16.9762 8.95493 17.0293C9.03461 17.0825 11.1706 17.1106 11.2518 17.0028C11.3331 16.895 11.3127 15.9434 11.2752 15.8996C11.2081 15.8184 10.6971 15.8512 10.6971 15.8512C10.6971 15.8512 10.7409 11.6981 10.7268 11.5653C10.7127 11.4325 10.5659 11.3496 10.3909 11.3903C10.2159 11.4309 8.77836 11.9559 8.7268 12.034Z" fill="#FA912C"/>
<path d="M3.98627 0.581559C3.88784 0.672184 7.6519 7.37531 7.6519 7.37531C7.6519 7.37531 8.28315 7.45656 9.69252 7.46906C11.1019 7.48156 11.8003 7.38781 11.8003 7.38781C11.8003 7.38781 8.87377 0.648747 8.69877 0.581559C8.61283 0.547184 7.45346 0.534684 6.32065 0.522184C5.18627 0.508122 4.08002 0.494059 3.98627 0.581559Z" fill="#2E9DF4"/>
</svg>
