<svg width="20" height="20" viewBox="0 0 20 20" fill="none" xmlns="http://www.w3.org/2000/svg">
<path d="M10.7957 0.662411C10.627 0.812411 9.31445 3.4171 9.31445 3.4171L8.33789 7.35616L12.1379 7.00772C12.1379 7.00772 15.2988 1.1296 15.3629 0.993661C15.477 0.746786 15.5379 0.645224 15.102 0.645224C14.666 0.643661 10.9535 0.521786 10.7957 0.662411Z" fill="#176CC7"/>
<path d="M12.7623 6.7637C12.5733 6.66213 7.00452 6.57463 6.87327 6.7637C6.75452 6.93557 6.82171 7.83713 6.86702 7.94495C6.94827 8.13245 8.74671 8.94963 8.74671 8.94963L8.71233 9.32151C8.71233 9.32151 8.85921 9.35901 9.90452 9.35901C10.9498 9.35901 11.1561 9.30588 11.1561 9.30588L11.1592 8.96995C11.1592 8.96995 12.778 8.18245 12.8592 8.07307C12.928 7.98245 12.9514 6.86526 12.7623 6.7637ZM11.1045 8.1887C11.1045 8.1887 11.1561 7.95901 11.0483 7.90588C10.9405 7.8512 9.09046 7.8762 8.94358 7.88401C8.79671 7.89182 8.79671 8.15432 8.79671 8.15432L7.63108 7.55432L7.60921 7.33088L12.0311 7.36213L12.0155 7.57307L11.1045 8.1887Z" fill="#F79429"/>
<path d="M9.25957 8.10742C9.1127 8.10742 9.02832 8.26055 9.02832 8.52461C9.02832 8.77148 9.1127 8.9793 9.29863 8.96367C9.45176 8.95117 9.50488 8.7168 9.49082 8.50898C9.47676 8.26055 9.44551 8.10742 9.25957 8.10742Z" fill="#FDFFFF"/>
<path d="M4.58008 14.3886C4.58008 18.1324 7.97227 19.6902 10.2238 19.623C12.8473 19.5449 15.6691 17.5542 15.4363 13.9824C15.2176 10.6308 12.3957 9.09331 9.93008 9.11049C7.06445 9.13237 4.58008 11.1183 4.58008 14.3886Z" fill="#F79429"/>
<path d="M10.1044 19.0582C10.0653 19.0582 10.0247 19.0582 9.98561 19.0566C8.81373 19.0176 7.65592 18.5238 6.80904 17.7035C5.90279 16.8254 5.40592 15.6379 5.41217 14.3613C5.42623 11.2441 8.15123 9.79883 9.99967 9.79883H10.0153C12.52 9.80977 14.5762 11.7566 14.634 14.3957C14.659 15.5707 14.284 16.7395 13.3403 17.6676C12.459 18.5301 11.184 19.0582 10.1044 19.0582ZM9.99654 10.3176C8.33873 10.3176 5.88717 11.6738 5.88092 14.3613C5.87623 16.3707 7.43248 18.4363 10.0247 18.5238C11.0122 18.5551 12.1262 18.1895 12.9465 17.3832C13.7997 16.5441 14.1825 15.4504 14.1653 14.4035C14.1278 12.1332 12.2715 10.327 10.0184 10.3176C10.0137 10.3145 10.0012 10.3176 9.99654 10.3176Z" fill="#D25116"/>
<path d="M9.07642 9.60427C8.9686 9.45584 7.86392 9.49802 6.67485 10.5215C5.4936 11.5386 5.31704 12.6636 5.52954 12.723C5.77173 12.7902 6.06704 11.7027 7.08735 10.7887C8.02485 9.95271 9.29048 9.89959 9.07642 9.60427ZM13.8249 13.6933C13.4483 13.7465 13.8389 14.8746 12.9655 16.1371C12.2077 17.2324 11.3483 17.6293 11.4483 17.8699C11.5827 18.1918 12.9592 17.3902 13.5967 16.084C14.1733 14.9011 14.1045 13.6527 13.8249 13.6933Z" fill="#FEFFFA"/>
<path d="M3.98627 0.581559C3.88784 0.672184 7.6519 7.37531 7.6519 7.37531C7.6519 7.37531 8.28315 7.45656 9.69252 7.46906C11.1019 7.48156 11.8003 7.38781 11.8003 7.38781C11.8003 7.38781 8.87377 0.648747 8.69877 0.581559C8.61283 0.547184 7.45346 0.534684 6.32065 0.522184C5.18627 0.508122 4.08002 0.494059 3.98627 0.581559Z" fill="#2E9DF4"/>
<path d="M11.7106 13.0801C11.5294 11.5098 9.70126 11.3785 8.94344 11.9816C8.20594 12.5691 8.27626 13.3879 8.79344 13.4832C9.20126 13.5582 9.30751 13.2348 9.42626 13.0863C9.69501 12.7535 10.1231 12.7223 10.4028 12.9894C10.72 13.2941 10.5247 14.0223 10.0481 14.0519C9.69344 14.0738 9.51376 14.0551 9.46844 14.116C9.40438 14.2019 9.41376 14.8785 9.47938 14.9535C9.55438 15.0394 9.85438 14.9863 10.1122 14.9957C10.4669 15.0098 10.8434 15.5348 10.595 15.9285C10.3372 16.3363 9.65126 16.1535 9.40438 15.9066C9.07782 15.5801 8.75126 15.7676 8.64188 15.8957C8.47001 16.0988 8.28719 16.5613 8.92157 17.0113C9.55438 17.4613 11.4747 17.5473 11.8622 16.1535C12.1997 14.9363 11.4122 14.4363 11.4122 14.4363C11.4122 14.4363 11.8138 13.9754 11.7106 13.0801Z" fill="#D25116"/>
</svg>
