<svg width="20" height="20" viewBox="0 0 20 20" fill="none" xmlns="http://www.w3.org/2000/svg">
<path d="M10.7957 0.662411C10.627 0.812411 9.31445 3.4171 9.31445 3.4171L8.33789 7.35616L12.1379 7.00772C12.1379 7.00772 15.2988 1.1296 15.3629 0.993661C15.477 0.746786 15.5379 0.645224 15.102 0.645224C14.666 0.643661 10.9535 0.521786 10.7957 0.662411Z" fill="#176CC7"/>
<path d="M12.7623 6.7637C12.5733 6.66213 7.00452 6.57463 6.87327 6.7637C6.75452 6.93557 6.82171 7.83713 6.86702 7.94495C6.94827 8.13245 8.74671 8.94963 8.74671 8.94963L8.71233 9.32151C8.71233 9.32151 8.85921 9.35901 9.90452 9.35901C10.9498 9.35901 11.1561 9.30588 11.1561 9.30588L11.1592 8.96995C11.1592 8.96995 12.778 8.18245 12.8592 8.07307C12.928 7.98245 12.9514 6.86526 12.7623 6.7637ZM11.1045 8.1887C11.1045 8.1887 11.1561 7.95901 11.0483 7.90588C10.9405 7.8512 9.09046 7.8762 8.94358 7.88401C8.79671 7.89182 8.79671 8.15432 8.79671 8.15432L7.60921 7.44651V7.33088L12.0311 7.36213L12.0389 7.49338L11.1045 8.1887Z" fill="#CECDD2"/>
<path d="M9.25957 7.99512C9.1127 7.99512 9.02832 8.14824 9.02832 8.4123C9.02832 8.65918 9.1127 8.86699 9.29863 8.85137C9.45176 8.83887 9.50488 8.60449 9.49082 8.39668C9.47676 8.14981 9.44551 7.99512 9.25957 7.99512Z" fill="#FDFFFF"/>
<path d="M4.52637 14.3574C4.52637 18.1011 7.97168 19.6902 10.2232 19.623C12.8467 19.5449 15.6154 17.5542 15.4357 13.9824C15.2654 10.598 12.3951 9.09331 9.92949 9.1105C7.06387 9.13237 4.52637 11.0871 4.52637 14.3574Z" fill="#CECDD2"/>
<path d="M10.0829 18.9264C10.0438 18.9264 10.0032 18.9264 9.96412 18.9248C8.79225 18.8857 7.63443 18.392 6.78756 17.5717C5.88131 16.6936 5.38443 15.5061 5.39068 14.2295C5.40475 11.1123 8.12975 9.66699 9.97818 9.66699H9.99381C12.4985 9.67793 14.5547 11.6248 14.6126 14.2639C14.6376 15.4389 14.1563 16.6717 13.2126 17.5998C12.3313 18.4639 11.1626 18.9264 10.0829 18.9264ZM9.97506 10.1857C8.31725 10.1857 5.86568 11.542 5.85943 14.2295C5.85475 16.2389 7.411 18.3045 10.0032 18.392C10.9907 18.4232 12.0079 18.0451 12.8297 17.2373C13.6829 16.3982 14.1626 15.317 14.1454 14.2701C14.1047 11.9998 12.2485 10.1936 9.99537 10.1826C9.99225 10.1826 9.97975 10.1857 9.97506 10.1857Z" fill="#9B9B9D"/>
<path d="M9.07642 9.60427C8.9686 9.45584 7.86392 9.49802 6.67485 10.5215C5.4936 11.5386 5.31704 12.6636 5.52954 12.723C5.77173 12.7902 6.06704 11.7027 7.08735 10.7887C8.02485 9.95271 9.29048 9.89959 9.07642 9.60427ZM13.7311 13.7058C13.3545 13.759 13.7452 14.8871 12.8717 16.1496C12.1139 17.2449 11.2545 17.6418 11.3545 17.8824C11.4889 18.2043 12.8655 17.4027 13.503 16.0965C14.0795 14.9152 14.0108 13.6668 13.7311 13.7058Z" fill="#FEFFFA"/>
<path d="M3.98627 0.581559C3.88784 0.672184 7.6519 7.37531 7.6519 7.37531C7.6519 7.37531 8.28315 7.45656 9.69252 7.46906C11.1019 7.48156 11.8003 7.38781 11.8003 7.38781C11.8003 7.38781 8.87377 0.648747 8.69877 0.581559C8.61283 0.547184 7.45346 0.534684 6.32065 0.522184C5.18627 0.508122 4.08002 0.494059 3.98627 0.581559Z" fill="#2E9DF4"/>
<path d="M8.88328 13.4923C9.04578 13.4939 9.1911 13.2736 9.32547 13.1392C9.61141 12.8517 9.91141 12.6236 10.2536 12.9329C11.0942 13.697 9.40672 14.472 8.7661 15.5314C8.28797 16.322 8.1911 16.9298 8.32391 17.0923C8.45672 17.2548 11.6895 17.247 11.7333 17.1657C11.777 17.0845 11.8223 16.0017 11.7473 15.9501C11.6723 15.8986 10.0833 15.9282 10.0833 15.9282C10.0833 15.9282 10.2161 15.6189 10.7614 15.147C11.3598 14.6298 11.8395 13.9189 11.7114 13.0782C11.4458 11.3407 9.69578 11.2767 8.93797 11.8814C8.19891 12.4704 8.35828 13.4861 8.88328 13.4923Z" fill="#9B9B9D"/>
</svg>
