<svg width="24" height="24" viewBox="0 0 24 24" fill="none" xmlns="http://www.w3.org/2000/svg">
<path fill-rule="evenodd" clip-rule="evenodd" d="M11.9998 2.75035C10.3422 2.75035 8.75246 3.40883 7.58035 4.58093C6.40825 5.75303 5.74977 7.34274 5.74977 9.00035C5.74977 10.658 6.40825 12.2477 7.58035 13.4198C8.75246 14.5919 10.3422 15.2503 11.9998 15.2503C13.6574 15.2503 15.2471 14.5919 16.4192 13.4198C17.5913 12.2477 18.2498 10.658 18.2498 9.00035C18.2498 7.34274 17.5913 5.75303 16.4192 4.58093C15.2471 3.40883 13.6574 2.75035 11.9998 2.75035ZM4.24977 9.00035C4.25058 7.86796 4.49952 6.74951 4.9791 5.72369C5.45867 4.69786 6.15722 3.7896 7.02558 3.0628C7.89395 2.336 8.91104 1.80832 10.0053 1.5169C11.0995 1.22548 12.2443 1.17739 13.3592 1.37602C14.474 1.57465 15.5318 2.01517 16.458 2.66658C17.3843 3.318 18.1565 4.16448 18.7205 5.14647C19.2844 6.12846 19.6262 7.22209 19.722 8.35042C19.8178 9.47875 19.6651 10.6144 19.2748 11.6773L21.5628 14.0453C21.8198 14.3123 22.0338 14.5343 22.1938 14.7193C22.3518 14.9013 22.5138 15.1093 22.6088 15.3513C22.9428 16.1963 22.6748 17.1963 21.8698 17.6883C21.6398 17.8303 21.3758 17.8883 21.1498 17.9263C20.9178 17.9663 20.6238 17.9963 20.2768 18.0333L20.2528 18.0353C19.7938 18.0843 19.7068 18.0993 19.6478 18.1223C19.5551 18.1586 19.4716 18.2147 19.403 18.2868C19.3344 18.3588 19.2824 18.445 19.2508 18.5393C19.2248 18.6093 19.2098 18.7123 19.1628 19.1833L19.1608 19.2053C19.1248 19.5663 19.0948 19.8693 19.0578 20.1073C19.0218 20.3373 18.9678 20.6013 18.8348 20.8323C18.3648 21.6543 17.3758 21.9623 16.5178 21.5993C16.2768 21.4973 16.0718 21.3263 15.8978 21.1643C15.7178 20.9983 15.5048 20.7763 15.2478 20.5093L15.2278 20.4893L11.9998 17.0903L8.76777 20.4953L8.75277 20.5103C8.49577 20.7773 8.28177 20.9993 8.10277 21.1653C7.92777 21.3273 7.72277 21.4983 7.48277 21.6003C6.62277 21.9633 5.63477 21.6553 5.16477 20.8333C5.03277 20.6023 4.97777 20.3393 4.94177 20.1073C4.90477 19.8703 4.87477 19.5673 4.83977 19.2073L4.83677 19.1843C4.79077 18.7133 4.77477 18.6113 4.74977 18.5403C4.71813 18.446 4.66618 18.3598 4.59758 18.2878C4.52899 18.2157 4.44542 18.1596 4.35277 18.1233C4.29277 18.1003 4.20577 18.0853 3.74677 18.0363L3.72377 18.0343C3.37677 17.9973 3.08277 17.9663 2.85077 17.9273C2.62477 17.8903 2.36077 17.8313 2.12977 17.6893C1.32577 17.1973 1.05777 16.1973 1.39077 15.3523C1.48677 15.1103 1.64777 14.9023 1.80577 14.7203C1.96577 14.5353 2.17977 14.3133 2.43777 14.0463L4.72477 11.6783C4.40879 10.8209 4.24795 9.91413 4.24977 9.00035ZM5.42777 13.1093L3.53177 15.0723C3.25577 15.3583 3.06977 15.5503 2.93977 15.7013C2.88155 15.7624 2.82993 15.8295 2.78577 15.9013C2.69577 16.1313 2.78577 16.3253 2.90477 16.4043C2.91377 16.4073 2.96477 16.4243 3.09877 16.4473C3.27877 16.4773 3.52877 16.5043 3.90477 16.5443L3.97977 16.5523C4.31977 16.5873 4.62077 16.6193 4.88977 16.7223C5.48877 16.9523 5.94677 17.4323 6.16177 18.0343C6.25777 18.3033 6.28777 18.6073 6.32177 18.9613L6.32977 19.0363C6.36777 19.4253 6.39377 19.6853 6.42377 19.8763C6.44977 20.0383 6.46977 20.0903 6.47077 20.0933C6.55077 20.2283 6.71477 20.2943 6.89577 20.2183C6.89577 20.2183 6.94577 20.1913 7.08177 20.0643C7.22677 19.9303 7.41177 19.7393 7.68677 19.4543L7.68877 19.4523L10.4088 16.5863C9.38736 16.3716 8.41977 15.9529 7.56391 15.3555C6.70805 14.7581 5.98151 13.9941 5.42777 13.1093ZM13.5908 16.5873C14.6124 16.3726 15.5803 15.9538 16.4363 15.3562C17.2924 14.7586 18.019 13.9944 18.5728 13.1093L20.4688 15.0723C20.7448 15.3583 20.9298 15.5503 21.0598 15.7013C21.1828 15.8413 21.2108 15.8963 21.2138 15.9013C21.3038 16.1313 21.2138 16.3253 21.0958 16.4043C21.0858 16.4073 21.0358 16.4243 20.9018 16.4473C20.7208 16.4773 20.4718 16.5043 20.0948 16.5443L20.0198 16.5523C19.6808 16.5873 19.3788 16.6193 19.1098 16.7223C18.5118 16.9523 18.0528 17.4323 17.8378 18.0343C17.7418 18.3033 17.7118 18.6073 17.6778 18.9613L17.6698 19.0363C17.6318 19.4253 17.6058 19.6853 17.5758 19.8763C17.5508 20.0383 17.5298 20.0903 17.5298 20.0933C17.4498 20.2283 17.2848 20.2953 17.1028 20.2183H17.1048C17.1048 20.2183 17.0548 20.1913 16.9178 20.0643C16.711 19.8661 16.5093 19.6627 16.3128 19.4543L16.3108 19.4523L13.5908 16.5873ZM12.0008 7.03435C11.9428 7.13435 11.8761 7.25235 11.8008 7.38835L11.7028 7.56435L11.6808 7.60435C11.6018 7.74835 11.4718 7.98635 11.2548 8.15135C11.0338 8.31935 10.7668 8.37735 10.6118 8.41135L10.5688 8.42035L10.3778 8.46335C10.2018 8.50335 10.0598 8.53535 9.93777 8.56635C10.0168 8.66335 10.1198 8.78535 10.2538 8.94235L10.3838 9.09435L10.4138 9.12835C10.5218 9.25335 10.6968 9.45335 10.7768 9.71335C10.8568 9.96935 10.8288 10.2333 10.8118 10.3993L10.8068 10.4463L10.7868 10.6493C10.7716 10.8025 10.7579 10.9559 10.7458 11.1093C10.8498 11.0633 10.9678 11.0093 11.1088 10.9443L11.2878 10.8623L11.3278 10.8423C11.4718 10.7753 11.7218 10.6583 11.9998 10.6583C12.2788 10.6583 12.5278 10.7753 12.6718 10.8433L12.7118 10.8623L12.8918 10.9443C13.0318 11.0093 13.1498 11.0643 13.2548 11.1093L13.2128 10.6493L13.1928 10.4463L13.1878 10.3993C13.1708 10.2323 13.1438 9.96935 13.2228 9.71335C13.3028 9.45335 13.4778 9.25335 13.5858 9.12835L13.6158 9.09435L13.7458 8.94235C13.8798 8.78535 13.9828 8.66335 14.0628 8.56635C13.9408 8.53635 13.7978 8.50335 13.6228 8.46335L13.4318 8.42035L13.3888 8.41035C13.2328 8.37735 12.9668 8.31935 12.7448 8.15035C12.5278 7.98635 12.3978 7.74835 12.3198 7.60535L12.2968 7.56435L12.1988 7.38835C12.1241 7.25235 12.0578 7.13435 11.9998 7.03435M11.0128 5.80035C11.1848 5.57535 11.4978 5.25035 11.9988 5.25035C12.5008 5.25035 12.8138 5.57535 12.9858 5.80035C13.1498 6.01435 13.3158 6.31135 13.4858 6.61635L13.5078 6.65735L13.6068 6.83435L13.6628 6.93435L13.7618 6.95735L13.9518 7.00035L13.9998 7.01035C14.3278 7.08535 14.6528 7.15835 14.9028 7.25735C15.1798 7.36635 15.5528 7.57735 15.6978 8.04235C15.8398 8.49735 15.6608 8.88335 15.5048 9.13235C15.3598 9.36235 15.1408 9.61835 14.9148 9.88135L14.8848 9.91635L14.7548 10.0693L14.6728 10.1663L14.6848 10.3013L14.7048 10.5043L14.7088 10.5503C14.7438 10.9023 14.7768 11.2423 14.7638 11.5143C14.7518 11.8003 14.6838 12.2323 14.2958 12.5253C13.8958 12.8293 13.4558 12.7633 13.1758 12.6823C12.9178 12.6093 12.6138 12.4683 12.3058 12.3273L12.2628 12.3073L12.0838 12.2243L11.9988 12.1853L11.9138 12.2253L11.7358 12.3073L11.6918 12.3273C11.3848 12.4683 11.0798 12.6093 10.8218 12.6823C10.5418 12.7623 10.1018 12.8293 9.70177 12.5253C9.31477 12.2323 9.24677 11.8003 9.23377 11.5153C9.22177 11.2423 9.25377 10.9023 9.28877 10.5503L9.29377 10.5043L9.31377 10.3013L9.32577 10.1663L9.24277 10.0693L9.11277 9.91635L9.08277 9.88135C8.85777 9.61835 8.63777 9.36135 8.49277 9.13135C8.33677 8.88335 8.15877 8.49735 8.29977 8.04135C8.44477 7.57835 8.81877 7.36635 9.09477 7.25735C9.34477 7.15835 9.67077 7.08535 9.99877 7.01135L10.0448 7.00135L10.2358 6.95735L10.3358 6.93435L10.3918 6.83435L10.4898 6.65735L10.5128 6.61635C10.6828 6.31135 10.8478 6.01435 11.0128 5.80035Z" fill="black" fill-opacity="0.5"/>
</svg>
