<svg width="24" height="24" viewBox="0 0 24 24" fill="none" xmlns="http://www.w3.org/2000/svg">
<path d="M23.1429 2.56653H0.857143C0.383036 2.56653 0 2.94956 0 3.42367V20.5665C0 21.0406 0.383036 21.4237 0.857143 21.4237H23.1429C23.617 21.4237 24 21.0406 24 20.5665V3.42367C24 2.94956 23.617 2.56653 23.1429 2.56653ZM22.0714 19.4951H1.92857V18.4264L5.63839 14.0255L9.65893 18.7933L15.9134 11.379L22.0714 18.6808V19.4951ZM22.0714 16.0183L16.0768 8.90939C15.9911 8.8076 15.8357 8.8076 15.75 8.90939L9.65893 16.1308L5.80179 11.5585C5.71607 11.4567 5.56071 11.4567 5.475 11.5585L1.92857 15.7639V4.4951H22.0714V16.0183ZM6.42857 10.4951C6.73812 10.4951 7.04463 10.4341 7.33061 10.3157C7.61659 10.1972 7.87644 10.0236 8.09532 9.80471C8.3142 9.58583 8.48783 9.32598 8.60629 9.04C8.72474 8.75402 8.78571 8.4475 8.78571 8.13796C8.78571 7.82841 8.72474 7.5219 8.60629 7.23592C8.48783 6.94994 8.3142 6.69009 8.09532 6.47121C7.87644 6.25232 7.61659 6.0787 7.33061 5.96024C7.04463 5.84178 6.73812 5.78081 6.42857 5.78081C5.80342 5.78081 5.20387 6.02916 4.76182 6.47121C4.31977 6.91326 4.07143 7.5128 4.07143 8.13796C4.07143 8.76311 4.31977 9.36266 4.76182 9.80471C5.20387 10.2468 5.80342 10.4951 6.42857 10.4951V10.4951ZM6.42857 7.38796C6.84375 7.38796 7.17857 7.72278 7.17857 8.13796C7.17857 8.55314 6.84375 8.88796 6.42857 8.88796C6.01339 8.88796 5.67857 8.55314 5.67857 8.13796C5.67857 7.72278 6.01339 7.38796 6.42857 7.38796Z" fill="white"/>
</svg>
