<svg width="22" height="22" viewBox="0 0 22 22" fill="none" xmlns="http://www.w3.org/2000/svg">
<path d="M11 21.2061C16.5508 21.2061 21.1063 16.641 21.1063 11.0902C21.1063 5.54902 16.5412 0.983984 11 0.983984C5.44922 0.983984 0.89375 5.54902 0.89375 11.0902C0.89375 16.641 5.45879 21.2061 11 21.2061ZM10.9904 7.98945C10.1674 7.98945 9.48789 7.30996 9.48789 6.49648C9.48789 5.64473 10.1674 4.98437 10.9904 4.98437C11.8039 4.98437 12.4738 5.64473 12.4738 6.49648C12.4738 7.30996 11.8039 7.98945 10.9904 7.98945ZM9.19121 16.4975C8.66484 16.4975 8.25332 16.1242 8.25332 15.5787C8.25332 15.0811 8.66484 14.6791 9.19121 14.6791H10.3014V11.1764H9.38262C8.85625 11.1764 8.44473 10.8031 8.44473 10.2576C8.44473 9.75996 8.85625 9.35801 9.38262 9.35801H11.335C12.0049 9.35801 12.359 9.81738 12.359 10.5352V14.6791H13.2586C13.785 14.6791 14.1965 15.0811 14.1965 15.5787C14.1965 16.1242 13.785 16.4975 13.2586 16.4975H9.19121Z" fill="#2F80ED"/>
</svg>
