<svg width="21" height="20" viewBox="0 0 21 20" fill="none" xmlns="http://www.w3.org/2000/svg">
<path d="M10.5025 17.5C9.46583 17.5 8.49083 17.3033 7.5775 16.91C6.66472 16.5161 5.87056 15.9817 5.195 15.3067C4.51944 14.6317 3.98472 13.8383 3.59083 12.9267C3.19694 12.015 3 11.0403 3 10.0025C3 8.96472 3.19694 7.98972 3.59083 7.0775C3.98472 6.16472 4.51917 5.37056 5.19417 4.695C5.86917 4.01944 6.66278 3.48472 7.575 3.09083C8.48722 2.69694 9.46222 2.5 10.5 2.5C10.7244 2.5 10.9489 2.51194 11.1733 2.53583C11.3978 2.55972 11.6222 2.58556 11.8467 2.61333V3.44083C11.6222 3.41306 11.3978 3.38722 11.1733 3.36333C10.9489 3.33889 10.7244 3.32667 10.5 3.32667C10.0217 3.89111 9.62194 4.50111 9.30083 5.15667C8.98028 5.81222 8.71861 6.49722 8.51583 7.21167H11.6542V8.045H8.31667C8.25333 8.36556 8.20889 8.69 8.18333 9.01833C8.15667 9.34722 8.14333 9.67583 8.14333 10.0042C8.14333 10.3325 8.15639 10.6597 8.1825 10.9858C8.20861 11.3114 8.25306 11.6344 8.31583 11.955H12.6825C12.7453 11.6344 12.7897 11.3106 12.8158 10.9833C12.8419 10.6556 12.855 10.3278 12.855 10C12.855 9.77556 12.8486 9.55111 12.8358 9.32667C12.8231 9.10222 12.8036 8.87778 12.7775 8.65333H13.6108C13.6369 8.87778 13.6564 9.10222 13.6692 9.32667C13.6819 9.55111 13.6883 9.77556 13.6883 10C13.6883 10.3278 13.6753 10.6556 13.6492 10.9833C13.6231 11.3111 13.5786 11.635 13.5158 11.955H16.8775C16.9792 11.6344 17.0525 11.3106 17.0975 10.9833C17.1425 10.6561 17.1656 10.3283 17.1667 10C17.1667 9.77556 17.1547 9.55111 17.1308 9.32667C17.1064 9.10222 17.0703 8.87778 17.0225 8.65333H17.8808C17.9208 8.87778 17.9508 9.10222 17.9708 9.32667C17.9903 9.55111 18 9.77556 18 10C18 11.0378 17.8033 12.0128 17.41 12.925C17.0167 13.8372 16.4822 14.6311 15.8067 15.3067C15.1311 15.9822 14.3378 16.5164 13.4267 16.9092C12.5156 17.3019 11.5408 17.4989 10.5025 17.5ZM4.12167 11.955H7.48417C7.42083 11.6344 7.37639 11.31 7.35083 10.9817C7.32417 10.6533 7.31083 10.3247 7.31083 9.99583C7.31083 9.6675 7.32389 9.34028 7.35 9.01417C7.37611 8.68861 7.42056 8.36556 7.48333 8.045H4.1225C4.02139 8.36556 3.94806 8.69 3.9025 9.01833C3.85639 9.34722 3.83333 9.67583 3.83333 10.0042C3.83333 10.3325 3.85611 10.6597 3.90167 10.9858C3.94722 11.3119 4.02056 11.635 4.12167 11.955ZM9.43917 16.58C8.98639 16.0222 8.61528 15.425 8.32583 14.7883C8.03694 14.1506 7.81139 13.4839 7.64917 12.7883H4.46167C4.92833 13.8067 5.59833 14.6519 6.47167 15.3242C7.34389 15.9969 8.33306 16.4156 9.43917 16.58ZM4.46167 7.21167H7.6575C7.83528 6.52667 8.07139 5.86556 8.36583 5.22833C8.66028 4.59111 9.01806 3.98833 9.43917 3.42C8.34417 3.595 7.3575 4.01889 6.47917 4.69167C5.60139 5.36389 4.92889 6.20389 4.46167 7.21167ZM10.5 16.6733C10.9611 16.0861 11.36 15.4706 11.6967 14.8267C12.0333 14.1828 12.2958 13.5033 12.4842 12.7883H8.51583C8.70417 13.5033 8.965 14.1883 9.29833 14.8433C9.63167 15.4983 10.0322 16.1086 10.5 16.6742M11.5608 16.5808C12.6664 16.4269 13.6558 16.0111 14.5292 15.3333C15.4014 14.6556 16.0711 13.8075 16.5383 12.7892H13.3433C13.1322 13.4631 12.8878 14.1214 12.61 14.7642C12.3322 15.4069 11.9825 16.0125 11.5608 16.5808ZM13.8333 6.66667V2.5H18V6.66667H13.8333ZM16.0767 4.42333H17.3592V3.14083H16.0767V4.42333Z" fill="#3057B6"/>
</svg>
