<svg width="51" height="51" viewBox="0 0 51 51" fill="none" xmlns="http://www.w3.org/2000/svg">
<path d="M25.429 10.4219V40.4942M10.4272 25.4704H40.5753" stroke="black" stroke-width="0.50625" stroke-linecap="round" stroke-linejoin="round"/>
<path d="M40.0239 10.3506H10.8356C10.5289 10.3506 10.2803 10.5992 10.2803 10.9059V40.0942C10.2803 40.4009 10.5289 40.6495 10.8356 40.6495H40.0239C40.3306 40.6495 40.5792 40.4009 40.5792 40.0942V10.9059C40.5792 10.5992 40.3306 10.3506 40.0239 10.3506Z" fill="#92D3F5"/>
<path d="M10.2956 18.8881L18.8332 10.3506H39.1213L10.2808 39.2959L10.2956 18.8881Z" fill="white"/>
<path d="M43.166 43.9168H7.80454C7.70594 43.9168 7.60831 43.8974 7.51721 43.8596C7.42612 43.8219 7.34335 43.7666 7.27362 43.6969C7.2039 43.6272 7.1486 43.5444 7.11086 43.4533C7.07313 43.3622 7.05371 43.2646 7.05371 43.166V7.80454C7.05371 7.60541 7.13282 7.41443 7.27362 7.27362C7.41443 7.13282 7.60541 7.05371 7.80454 7.05371H43.166C43.2646 7.05371 43.3622 7.07313 43.4533 7.11086C43.5444 7.1486 43.6272 7.2039 43.6969 7.27362C43.7666 7.34335 43.8219 7.42612 43.8596 7.51721C43.8974 7.60831 43.9168 7.70594 43.9168 7.80454V43.166C43.9168 43.2646 43.8974 43.3622 43.8596 43.4533C43.8219 43.5444 43.7666 43.6272 43.6969 43.6969C43.6272 43.7666 43.5444 43.8219 43.4533 43.8596C43.3622 43.8974 43.2646 43.9168 43.166 43.9168ZM11.7393 39.9416H39.12C39.2186 39.9416 39.3162 39.9222 39.4073 39.8845C39.4984 39.8467 39.5812 39.7914 39.6509 39.7217C39.7206 39.652 39.7759 39.5692 39.8136 39.4781C39.8514 39.387 39.8708 39.2894 39.8708 39.1908V11.8095C39.8708 11.7109 39.8514 11.6132 39.8136 11.5221C39.7759 11.431 39.7206 11.3483 39.6509 11.2785C39.5812 11.2088 39.4984 11.1535 39.4073 11.1158C39.3162 11.078 39.2186 11.0586 39.12 11.0586H11.7393C11.6407 11.0586 11.5431 11.078 11.452 11.1158C11.3609 11.1535 11.2781 11.2088 11.2084 11.2785C11.1387 11.3483 11.0834 11.431 11.0457 11.5221C11.0079 11.6132 10.9885 11.7109 10.9885 11.8095V39.1908C10.9885 39.2894 11.0079 39.387 11.0457 39.4781C11.0834 39.5692 11.1387 39.652 11.2084 39.7217C11.2781 39.7914 11.3609 39.8467 11.452 39.8845C11.5431 39.9222 11.6407 39.9416 11.7393 39.9416Z" fill="#A57939"/>
<path d="M25.4294 10.3506V40.6488M10.2803 25.47H40.5792" stroke="#A57939" stroke-width="0.50625" stroke-linecap="round" stroke-linejoin="round"/>
<path d="M43.2081 43.2081H7.76172M7.76172 40.4938V7.76172H43.2081V40.4938" stroke="black" stroke-width="0.5" stroke-linecap="round" stroke-linejoin="round"/>
</svg>
