<svg width="72" height="25" viewBox="0 0 72 25" fill="none" xmlns="http://www.w3.org/2000/svg">
<rect width="72" height="25" rx="3" fill="#565656"/>
<path d="M26.6505 4.7H27.564L29.8545 11H29.0535L28.5855 9.713H25.629L25.1655 11H24.36L26.6505 4.7ZM25.908 8.957H28.3065L27.105 5.6675L25.908 8.957ZM33.5338 4.7H34.4248L32.2918 8.1515V11H31.5358V8.1515L29.4028 4.7H30.2938L31.9138 7.3235L33.5338 4.7ZM31.7248 4.205L32.0848 2.909H32.8408L32.2288 4.205H31.7248ZM39.0973 4.7H39.9883L37.8553 8.1515V11H37.0993V8.1515L34.9663 4.7H35.8573L37.4773 7.3235L39.0973 4.7ZM40.8086 11V4.7H41.6276L44.7731 9.632V4.7H45.5291V11H44.7146L41.5646 6.068V11H40.8086ZM42.7481 4.205L41.8796 2.909H42.3836L43.1666 3.809L43.9361 2.909H44.4446L43.5851 4.205H42.7481ZM28.4145 13.7H29.1705V20H28.4145V17.003H25.296V20H24.54V13.7H25.296V16.247H28.4145V13.7ZM32.3634 13.7H33.2769L35.5674 20H34.7664L34.2984 18.713H31.3419L30.8784 20H30.0729L32.3634 13.7ZM31.6209 17.957H34.0194L32.8179 14.6675L31.6209 17.957ZM36.3877 20V13.7H38.6017C38.9377 13.7 39.2407 13.7825 39.5107 13.9475C39.7837 14.1125 39.9997 14.336 40.1587 14.618C40.3207 14.897 40.4017 15.209 40.4017 15.554C40.4017 15.857 40.3417 16.133 40.2217 16.382C40.1017 16.631 39.9367 16.8395 39.7267 17.0075C39.5197 17.1725 39.2842 17.2865 39.0202 17.3495L40.5502 20H39.6772L38.1742 17.4125H37.1437V20H36.3877ZM37.1437 16.6565H38.5252C38.7292 16.6565 38.9167 16.607 39.0877 16.508C39.2587 16.406 39.3937 16.2695 39.4927 16.0985C39.5947 15.9245 39.6457 15.7295 39.6457 15.5135C39.6457 15.2945 39.5947 15.0995 39.4927 14.9285C39.3937 14.7545 39.2587 14.618 39.0877 14.519C38.9167 14.417 38.7292 14.366 38.5252 14.366H37.1437V16.6565ZM45.0563 13.7H45.9473L43.8143 17.1515V20H43.0583V17.1515L40.9253 13.7H41.8163L43.4363 16.3235L45.0563 13.7ZM46.7675 20V13.7H48.851C49.286 13.7 49.694 13.7825 50.075 13.9475C50.456 14.1095 50.7905 14.336 51.0785 14.627C51.3665 14.915 51.5915 15.2495 51.7535 15.6305C51.9185 16.0085 52.001 16.415 52.001 16.85C52.001 17.285 51.9185 17.693 51.7535 18.074C51.5915 18.452 51.3665 18.7865 51.0785 19.0775C50.7905 19.3655 50.456 19.592 50.075 19.757C49.694 19.919 49.286 20 48.851 20H46.7675ZM47.5235 19.244H48.851C49.181 19.244 49.49 19.1825 49.778 19.0595C50.069 18.9335 50.324 18.761 50.543 18.542C50.762 18.323 50.933 18.0695 51.056 17.7815C51.182 17.4905 51.245 17.18 51.245 16.85C51.245 16.52 51.182 16.211 51.056 15.923C50.933 15.632 50.7605 15.377 50.5385 15.158C50.3195 14.939 50.066 14.768 49.778 14.645C49.49 14.519 49.181 14.456 48.851 14.456H47.5235V19.244ZM56.2799 13.7H57.1709L55.0379 17.1515V20H54.2819V17.1515L52.1489 13.7H53.0399L54.6599 16.3235L56.2799 13.7Z" fill="white"/>
<path fill-rule="evenodd" clip-rule="evenodd" d="M8.31356 6.50598H7.26695C6.56723 6.50598 6 7.08034 6 7.78884V17.7171C6 18.4256 6.56723 19 7.26695 19H17.7331C18.4328 19 19 18.4256 19 17.7171V7.78884C19 7.08034 18.4328 6.50598 17.7331 6.50598H16.3008V8.29084C16.3008 8.78371 15.9063 9.18327 15.4195 9.18327C14.9327 9.18327 14.5381 8.78371 14.5381 8.29084V6.50598H10.0763V8.29084C10.0763 8.78371 9.68167 9.18327 9.19492 9.18327C8.70816 9.18327 8.31356 8.78371 8.31356 8.29084V6.50598ZM6.77119 17.7171V10.8008H18.2288V17.7171C18.2288 17.9944 18.0069 18.2191 17.7331 18.2191H7.26695C6.99315 18.2191 6.77119 17.9944 6.77119 17.7171Z" fill="white"/>
<path fill-rule="evenodd" clip-rule="evenodd" d="M9.19492 5C9.49914 5 9.74576 5.24972 9.74576 5.55777V8.29084C9.74576 8.59888 9.49914 8.84861 9.19492 8.84861C8.89069 8.84861 8.64407 8.59888 8.64407 8.29084V5.55777C8.64407 5.24972 8.89069 5 9.19492 5ZM15.4195 5C15.7237 5 15.9703 5.24972 15.9703 5.55777V8.29084C15.9703 8.59888 15.7237 8.84861 15.4195 8.84861C15.1153 8.84861 14.8686 8.59888 14.8686 8.29084V5.55777C14.8686 5.24972 15.1153 5 15.4195 5Z" fill="white"/>
<path d="M10.686 16.8597C10.3304 16.8597 10.015 16.7975 9.73996 16.6732C9.4664 16.5474 9.25059 16.3741 9.09253 16.1535C8.93447 15.9329 8.85392 15.6788 8.85088 15.3914H9.98617C9.99073 15.4955 10.0234 15.5879 10.0842 15.6687C10.145 15.748 10.2278 15.8101 10.3327 15.8552C10.4376 15.9002 10.5569 15.9228 10.6906 15.9228C10.8243 15.9228 10.9421 15.8987 11.044 15.8505C11.1473 15.8008 11.2278 15.7332 11.2856 15.6478C11.3434 15.5608 11.3715 15.4613 11.3699 15.3495C11.3715 15.2376 11.3403 15.1381 11.2765 15.0511C11.2127 14.9641 11.1222 14.8965 11.0052 14.8484C10.8897 14.8002 10.7529 14.7761 10.5949 14.7761H10.1412V13.9558H10.5949C10.7332 13.9558 10.8547 13.9325 10.9596 13.8859C11.066 13.8392 11.1488 13.774 11.2081 13.6901C11.2674 13.6046 11.2962 13.5067 11.2947 13.3964C11.2962 13.2892 11.2712 13.1952 11.2195 13.1144C11.1693 13.0321 11.0987 12.9684 11.0075 12.9233C10.9178 12.8783 10.8137 12.8557 10.6952 12.8557C10.5705 12.8557 10.4573 12.8783 10.3555 12.9233C10.2552 12.9684 10.1754 13.0321 10.1161 13.1144C10.0568 13.1968 10.0257 13.2923 10.0226 13.4011H8.94435C8.94739 13.1168 9.0249 12.8666 9.17688 12.6507C9.32886 12.4331 9.53555 12.263 9.79696 12.1403C10.0599 12.0175 10.3593 11.9561 10.6952 11.9561C11.0295 11.9561 11.3236 12.016 11.5774 12.1356C11.8312 12.2552 12.0288 12.4184 12.1701 12.625C12.3115 12.8301 12.3821 13.0624 12.3821 13.3219C12.3837 13.5906 12.2978 13.8121 12.1245 13.9861C11.9528 14.1601 11.7317 14.2673 11.4611 14.3077V14.345C11.8229 14.3885 12.0957 14.5081 12.2796 14.7039C12.465 14.8996 12.5569 15.1444 12.5554 15.438C12.5554 15.7146 12.4756 15.9601 12.316 16.1745C12.158 16.3873 11.9376 16.5551 11.6549 16.6779C11.3737 16.7991 11.0508 16.8597 10.686 16.8597Z" fill="white"/>
<path d="M15.3509 12.0214V16.7944H14.2247V13.0981H14.1974L13.1532 13.7507V12.7532L14.3045 12.0214H15.3509Z" fill="white"/>
</svg>
