<svg width="24" height="24" viewBox="0 0 24 24" fill="none" xmlns="http://www.w3.org/2000/svg">
<circle cx="12" cy="12" r="12" fill="#FFAC13" fill-opacity="0.1"/>
<path d="M15.1433 8.42522V7.56808C15.1433 7.48951 15.079 7.42522 15.0004 7.42522H8.14328C8.0647 7.42522 8.00042 7.48951 8.00042 7.56808V8.42522C8.00042 8.50379 8.0647 8.56808 8.14328 8.56808H15.0004C15.079 8.56808 15.1433 8.50379 15.1433 8.42522ZM8.14328 9.99665C8.0647 9.99665 8.00042 10.0609 8.00042 10.1395V10.9967C8.00042 11.0752 8.0647 11.1395 8.14328 11.1395H11.429C11.5076 11.1395 11.5718 11.0752 11.5718 10.9967V10.1395C11.5718 10.0609 11.5076 9.99665 11.429 9.99665H8.14328ZM14.8576 12.0681C12.7272 12.0681 11.0004 13.7949 11.0004 15.9252C11.0004 18.0556 12.7272 19.7824 14.8576 19.7824C16.9879 19.7824 18.7147 18.0556 18.7147 15.9252C18.7147 13.7949 16.9879 12.0681 14.8576 12.0681ZM16.7772 17.8449C16.2647 18.3574 15.5826 18.6395 14.8576 18.6395C14.1326 18.6395 13.4504 18.3574 12.9379 17.8449C12.4254 17.3324 12.1433 16.6502 12.1433 15.9252C12.1433 15.2002 12.4254 14.5181 12.9379 14.0056C13.4504 13.4931 14.1326 13.2109 14.8576 13.2109C15.5826 13.2109 16.2647 13.4931 16.7772 14.0056C17.2897 14.5181 17.5718 15.2002 17.5718 15.9252C17.5718 16.6502 17.2897 17.3324 16.7772 17.8449ZM16.4468 14.5681H15.6558C15.6093 14.5681 15.5665 14.5895 15.5397 14.627L14.4058 16.1949L13.9933 15.6252C13.9801 15.6068 13.9626 15.5919 13.9424 15.5816C13.9222 15.5714 13.8999 15.5661 13.8772 15.5663H13.0897C12.9736 15.5663 12.9058 15.6984 12.9736 15.7931L14.2915 17.6163C14.3486 17.6949 14.4647 17.6949 14.5218 17.6163L16.5611 14.7949C16.6308 14.7002 16.5629 14.5681 16.4468 14.5681ZM10.7147 18.0681H6.57185V5.49665H16.5718V11.6395C16.5718 11.7181 16.6361 11.7824 16.7147 11.7824H17.7147C17.7933 11.7824 17.8576 11.7181 17.8576 11.6395V4.78237C17.8576 4.46629 17.6022 4.21094 17.2861 4.21094H5.85756C5.54149 4.21094 5.28613 4.46629 5.28613 4.78237V18.7824C5.28613 19.0984 5.54149 19.3538 5.85756 19.3538H10.7147C10.7933 19.3538 10.8576 19.2895 10.8576 19.2109V18.2109C10.8576 18.1324 10.7933 18.0681 10.7147 18.0681Z" fill="#FFAC13"/>
</svg>
