<svg width="20" height="20" viewBox="0 0 20 20" fill="none" xmlns="http://www.w3.org/2000/svg">
<path d="M16.875 8.30636H15.9821C15.8839 8.30636 15.8036 8.38672 15.8036 8.48493V9.37779C15.8036 9.47601 15.8839 9.55636 15.9821 9.55636H16.875C16.9732 9.55636 17.0536 9.47601 17.0536 9.37779V8.48493C17.0536 8.38672 16.9732 8.30636 16.875 8.30636ZM17.5893 5.98493H14.9107V1.25279C14.9107 1.15458 14.8304 1.07422 14.7321 1.07422H5.26786C5.16964 1.07422 5.08929 1.15458 5.08929 1.25279V5.98493H2.41071C1.42411 5.98493 0.625 6.78404 0.625 7.77065V15.0921C0.625 15.4872 0.944196 15.8064 1.33929 15.8064H5.08929V18.7528C5.08929 18.851 5.16964 18.9314 5.26786 18.9314H14.7321C14.8304 18.9314 14.9107 18.851 14.9107 18.7528V15.8064H18.6607C19.0558 15.8064 19.375 15.4872 19.375 15.0921V7.77065C19.375 6.78404 18.5759 5.98493 17.5893 5.98493ZM6.60714 2.59208H13.3929V5.98493H6.60714V2.59208ZM13.3929 17.4135H6.60714V11.2528H13.3929V17.4135ZM17.8571 14.2885H14.9107V9.73493H5.08929V14.2885H2.14286V7.77065C2.14286 7.62333 2.26339 7.50279 2.41071 7.50279H17.5893C17.7366 7.50279 17.8571 7.62333 17.8571 7.77065V14.2885Z" fill="#A0AEBF"/>
</svg>
