<svg width="66" height="66" viewBox="0 0 66 66" fill="none" xmlns="http://www.w3.org/2000/svg">
<path d="M0 0H3.14286V3.14286H0V0ZM3.14286 0H6.28571V3.14286H3.14286V0ZM6.28571 0H9.42857V3.14286H6.28571V0ZM9.42857 0H12.5714V3.14286H9.42857V0ZM12.5714 0H15.7143V3.14286H12.5714V0ZM15.7143 0H18.8571V3.14286H15.7143V0ZM18.8571 0H22V3.14286H18.8571V0ZM25.1429 0H28.2857V3.14286H25.1429V0ZM31.4286 0H34.5714V3.14286H31.4286V0ZM37.7143 0H40.8571V3.14286H37.7143V0ZM44 0H47.1429V3.14286H44V0ZM47.1429 0H50.2857V3.14286H47.1429V0ZM50.2857 0H53.4286V3.14286H50.2857V0ZM53.4286 0H56.5714V3.14286H53.4286V0ZM56.5714 0H59.7143V3.14286H56.5714V0ZM59.7143 0H62.8571V3.14286H59.7143V0ZM62.8571 0H66V3.14286H62.8571V0ZM0 3.14286H3.14286V6.28571H0V3.14286ZM18.8571 3.14286H22V6.28571H18.8571V3.14286ZM28.2857 3.14286H31.4286V6.28571H28.2857V3.14286ZM37.7143 3.14286H40.8571V6.28571H37.7143V3.14286ZM44 3.14286H47.1429V6.28571H44V3.14286ZM62.8571 3.14286H66V6.28571H62.8571V3.14286ZM0 6.28571H3.14286V9.42857H0V6.28571ZM6.28571 6.28571H9.42857V9.42857H6.28571V6.28571ZM9.42857 6.28571H12.5714V9.42857H9.42857V6.28571ZM12.5714 6.28571H15.7143V9.42857H12.5714V6.28571ZM18.8571 6.28571H22V9.42857H18.8571V6.28571ZM25.1429 6.28571H28.2857V9.42857H25.1429V6.28571ZM31.4286 6.28571H34.5714V9.42857H31.4286V6.28571ZM34.5714 6.28571H37.7143V9.42857H34.5714V6.28571ZM37.7143 6.28571H40.8571V9.42857H37.7143V6.28571ZM44 6.28571H47.1429V9.42857H44V6.28571ZM50.2857 6.28571H53.4286V9.42857H50.2857V6.28571ZM53.4286 6.28571H56.5714V9.42857H53.4286V6.28571ZM56.5714 6.28571H59.7143V9.42857H56.5714V6.28571ZM62.8571 6.28571H66V9.42857H62.8571V6.28571ZM0 9.42857H3.14286V12.5714H0V9.42857ZM6.28571 9.42857H9.42857V12.5714H6.28571V9.42857ZM9.42857 9.42857H12.5714V12.5714H9.42857V9.42857ZM12.5714 9.42857H15.7143V12.5714H12.5714V9.42857ZM18.8571 9.42857H22V12.5714H18.8571V9.42857ZM25.1429 9.42857H28.2857V12.5714H25.1429V9.42857ZM28.2857 9.42857H31.4286V12.5714H28.2857V9.42857ZM31.4286 9.42857H34.5714V12.5714H31.4286V9.42857ZM34.5714 9.42857H37.7143V12.5714H34.5714V9.42857ZM44 9.42857H47.1429V12.5714H44V9.42857ZM50.2857 9.42857H53.4286V12.5714H50.2857V9.42857ZM53.4286 9.42857H56.5714V12.5714H53.4286V9.42857ZM56.5714 9.42857H59.7143V12.5714H56.5714V9.42857ZM62.8571 9.42857H66V12.5714H62.8571V9.42857ZM0 12.5714H3.14286V15.7143H0V12.5714ZM6.28571 12.5714H9.42857V15.7143H6.28571V12.5714ZM9.42857 12.5714H12.5714V15.7143H9.42857V12.5714ZM12.5714 12.5714H15.7143V15.7143H12.5714V12.5714ZM18.8571 12.5714H22V15.7143H18.8571V12.5714ZM44 12.5714H47.1429V15.7143H44V12.5714ZM50.2857 12.5714H53.4286V15.7143H50.2857V12.5714ZM53.4286 12.5714H56.5714V15.7143H53.4286V12.5714ZM56.5714 12.5714H59.7143V15.7143H56.5714V12.5714ZM62.8571 12.5714H66V15.7143H62.8571V12.5714ZM0 15.7143H3.14286V18.8571H0V15.7143ZM18.8571 15.7143H22V18.8571H18.8571V15.7143ZM25.1429 15.7143H28.2857V18.8571H25.1429V15.7143ZM28.2857 15.7143H31.4286V18.8571H28.2857V15.7143ZM34.5714 15.7143H37.7143V18.8571H34.5714V15.7143ZM37.7143 15.7143H40.8571V18.8571H37.7143V15.7143ZM44 15.7143H47.1429V18.8571H44V15.7143ZM62.8571 15.7143H66V18.8571H62.8571V15.7143ZM0 18.8571H3.14286V22H0V18.8571ZM3.14286 18.8571H6.28571V22H3.14286V18.8571ZM6.28571 18.8571H9.42857V22H6.28571V18.8571ZM9.42857 18.8571H12.5714V22H9.42857V18.8571ZM12.5714 18.8571H15.7143V22H12.5714V18.8571ZM15.7143 18.8571H18.8571V22H15.7143V18.8571ZM18.8571 18.8571H22V22H18.8571V18.8571ZM25.1429 18.8571H28.2857V22H25.1429V18.8571ZM31.4286 18.8571H34.5714V22H31.4286V18.8571ZM37.7143 18.8571H40.8571V22H37.7143V18.8571ZM44 18.8571H47.1429V22H44V18.8571ZM47.1429 18.8571H50.2857V22H47.1429V18.8571ZM50.2857 18.8571H53.4286V22H50.2857V18.8571ZM53.4286 18.8571H56.5714V22H53.4286V18.8571ZM56.5714 18.8571H59.7143V22H56.5714V18.8571ZM59.7143 18.8571H62.8571V22H59.7143V18.8571ZM62.8571 18.8571H66V22H62.8571V18.8571ZM25.1429 22H28.2857V25.1429H25.1429V22ZM34.5714 22H37.7143V25.1429H34.5714V22ZM37.7143 22H40.8571V25.1429H37.7143V22ZM3.14286 25.1429H6.28571V28.2857H3.14286V25.1429ZM9.42857 25.1429H12.5714V28.2857H9.42857V25.1429ZM15.7143 25.1429H18.8571V28.2857H15.7143V25.1429ZM18.8571 25.1429H22V28.2857H18.8571V25.1429ZM22 25.1429H25.1429V28.2857H22V25.1429ZM25.1429 25.1429H28.2857V28.2857H25.1429V25.1429ZM31.4286 25.1429H34.5714V28.2857H31.4286V25.1429ZM34.5714 25.1429H37.7143V28.2857H34.5714V25.1429ZM37.7143 25.1429H40.8571V28.2857H37.7143V25.1429ZM40.8571 25.1429H44V28.2857H40.8571V25.1429ZM44 25.1429H47.1429V28.2857H44V25.1429ZM47.1429 25.1429H50.2857V28.2857H47.1429V25.1429ZM53.4286 25.1429H56.5714V28.2857H53.4286V25.1429ZM56.5714 25.1429H59.7143V28.2857H56.5714V25.1429ZM62.8571 25.1429H66V28.2857H62.8571V25.1429ZM0 28.2857H3.14286V31.4286H0V28.2857ZM3.14286 28.2857H6.28571V31.4286H3.14286V28.2857ZM9.42857 28.2857H12.5714V31.4286H9.42857V28.2857ZM12.5714 28.2857H15.7143V31.4286H12.5714V28.2857ZM28.2857 28.2857H31.4286V31.4286H28.2857V28.2857ZM37.7143 28.2857H40.8571V31.4286H37.7143V28.2857ZM44 28.2857H47.1429V31.4286H44V28.2857ZM53.4286 28.2857H56.5714V31.4286H53.4286V28.2857ZM59.7143 28.2857H62.8571V31.4286H59.7143V28.2857ZM6.28571 31.4286H9.42857V34.5714H6.28571V31.4286ZM9.42857 31.4286H12.5714V34.5714H9.42857V31.4286ZM18.8571 31.4286H22V34.5714H18.8571V31.4286ZM25.1429 31.4286H28.2857V34.5714H25.1429V31.4286ZM31.4286 31.4286H34.5714V34.5714H31.4286V31.4286ZM34.5714 31.4286H37.7143V34.5714H34.5714V31.4286ZM37.7143 31.4286H40.8571V34.5714H37.7143V31.4286ZM40.8571 31.4286H44V34.5714H40.8571V31.4286ZM56.5714 31.4286H59.7143V34.5714H56.5714V31.4286ZM59.7143 31.4286H62.8571V34.5714H59.7143V31.4286ZM62.8571 31.4286H66V34.5714H62.8571V31.4286ZM0 34.5714H3.14286V37.7143H0V34.5714ZM6.28571 34.5714H9.42857V37.7143H6.28571V34.5714ZM9.42857 34.5714H12.5714V37.7143H9.42857V34.5714ZM15.7143 34.5714H18.8571V37.7143H15.7143V34.5714ZM22 34.5714H25.1429V37.7143H22V34.5714ZM34.5714 34.5714H37.7143V37.7143H34.5714V34.5714ZM37.7143 34.5714H40.8571V37.7143H37.7143V34.5714ZM9.42857 37.7143H12.5714V40.8571H9.42857V37.7143ZM18.8571 37.7143H22V40.8571H18.8571V37.7143ZM22 37.7143H25.1429V40.8571H22V37.7143ZM25.1429 37.7143H28.2857V40.8571H25.1429V37.7143ZM28.2857 37.7143H31.4286V40.8571H28.2857V37.7143ZM31.4286 37.7143H34.5714V40.8571H31.4286V37.7143ZM37.7143 37.7143H40.8571V40.8571H37.7143V37.7143ZM44 37.7143H47.1429V40.8571H44V37.7143ZM50.2857 37.7143H53.4286V40.8571H50.2857V37.7143ZM56.5714 37.7143H59.7143V40.8571H56.5714V37.7143ZM59.7143 37.7143H62.8571V40.8571H59.7143V37.7143ZM25.1429 40.8571H28.2857V44H25.1429V40.8571ZM31.4286 40.8571H34.5714V44H31.4286V40.8571ZM37.7143 40.8571H40.8571V44H37.7143V40.8571ZM47.1429 40.8571H50.2857V44H47.1429V40.8571ZM50.2857 40.8571H53.4286V44H50.2857V40.8571ZM53.4286 40.8571H56.5714V44H53.4286V40.8571ZM0 44H3.14286V47.1429H0V44ZM3.14286 44H6.28571V47.1429H3.14286V44ZM6.28571 44H9.42857V47.1429H6.28571V44ZM9.42857 44H12.5714V47.1429H9.42857V44ZM12.5714 44H15.7143V47.1429H12.5714V44ZM15.7143 44H18.8571V47.1429H15.7143V44ZM18.8571 44H22V47.1429H18.8571V44ZM25.1429 44H28.2857V47.1429H25.1429V44ZM34.5714 44H37.7143V47.1429H34.5714V44ZM37.7143 44H40.8571V47.1429H37.7143V44ZM40.8571 44H44V47.1429H40.8571V44ZM47.1429 44H50.2857V47.1429H47.1429V44ZM53.4286 44H56.5714V47.1429H53.4286V44ZM56.5714 44H59.7143V47.1429H56.5714V44ZM62.8571 44H66V47.1429H62.8571V44ZM0 47.1429H3.14286V50.2857H0V47.1429ZM18.8571 47.1429H22V50.2857H18.8571V47.1429ZM25.1429 47.1429H28.2857V50.2857H25.1429V47.1429ZM28.2857 47.1429H31.4286V50.2857H28.2857V47.1429ZM37.7143 47.1429H40.8571V50.2857H37.7143V47.1429ZM40.8571 47.1429H44V50.2857H40.8571V47.1429ZM47.1429 47.1429H50.2857V50.2857H47.1429V47.1429ZM50.2857 47.1429H53.4286V50.2857H50.2857V47.1429ZM59.7143 47.1429H62.8571V50.2857H59.7143V47.1429ZM62.8571 47.1429H66V50.2857H62.8571V47.1429ZM0 50.2857H3.14286V53.4286H0V50.2857ZM6.28571 50.2857H9.42857V53.4286H6.28571V50.2857ZM9.42857 50.2857H12.5714V53.4286H9.42857V50.2857ZM12.5714 50.2857H15.7143V53.4286H12.5714V50.2857ZM18.8571 50.2857H22V53.4286H18.8571V50.2857ZM31.4286 50.2857H34.5714V53.4286H31.4286V50.2857ZM37.7143 50.2857H40.8571V53.4286H37.7143V50.2857ZM44 50.2857H47.1429V53.4286H44V50.2857ZM47.1429 50.2857H50.2857V53.4286H47.1429V50.2857ZM50.2857 50.2857H53.4286V53.4286H50.2857V50.2857ZM53.4286 50.2857H56.5714V53.4286H53.4286V50.2857ZM59.7143 50.2857H62.8571V53.4286H59.7143V50.2857ZM62.8571 50.2857H66V53.4286H62.8571V50.2857ZM0 53.4286H3.14286V56.5714H0V53.4286ZM6.28571 53.4286H9.42857V56.5714H6.28571V53.4286ZM9.42857 53.4286H12.5714V56.5714H9.42857V53.4286ZM12.5714 53.4286H15.7143V56.5714H12.5714V53.4286ZM18.8571 53.4286H22V56.5714H18.8571V53.4286ZM25.1429 53.4286H28.2857V56.5714H25.1429V53.4286ZM31.4286 53.4286H34.5714V56.5714H31.4286V53.4286ZM34.5714 53.4286H37.7143V56.5714H34.5714V53.4286ZM47.1429 53.4286H50.2857V56.5714H47.1429V53.4286ZM56.5714 53.4286H59.7143V56.5714H56.5714V53.4286ZM59.7143 53.4286H62.8571V56.5714H59.7143V53.4286ZM62.8571 53.4286H66V56.5714H62.8571V53.4286ZM0 56.5714H3.14286V59.7143H0V56.5714ZM6.28571 56.5714H9.42857V59.7143H6.28571V56.5714ZM9.42857 56.5714H12.5714V59.7143H9.42857V56.5714ZM12.5714 56.5714H15.7143V59.7143H12.5714V56.5714ZM18.8571 56.5714H22V59.7143H18.8571V56.5714ZM28.2857 56.5714H31.4286V59.7143H28.2857V56.5714ZM31.4286 56.5714H34.5714V59.7143H31.4286V56.5714ZM37.7143 56.5714H40.8571V59.7143H37.7143V56.5714ZM50.2857 56.5714H53.4286V59.7143H50.2857V56.5714ZM53.4286 56.5714H56.5714V59.7143H53.4286V56.5714ZM62.8571 56.5714H66V59.7143H62.8571V56.5714ZM0 59.7143H3.14286V62.8571H0V59.7143ZM18.8571 59.7143H22V62.8571H18.8571V59.7143ZM25.1429 59.7143H28.2857V62.8571H25.1429V59.7143ZM28.2857 59.7143H31.4286V62.8571H28.2857V59.7143ZM31.4286 59.7143H34.5714V62.8571H31.4286V59.7143ZM40.8571 59.7143H44V62.8571H40.8571V59.7143ZM44 59.7143H47.1429V62.8571H44V59.7143ZM47.1429 59.7143H50.2857V62.8571H47.1429V59.7143ZM50.2857 59.7143H53.4286V62.8571H50.2857V59.7143ZM59.7143 59.7143H62.8571V62.8571H59.7143V59.7143ZM0 62.8571H3.14286V66H0V62.8571ZM3.14286 62.8571H6.28571V66H3.14286V62.8571ZM6.28571 62.8571H9.42857V66H6.28571V62.8571ZM9.42857 62.8571H12.5714V66H9.42857V62.8571ZM12.5714 62.8571H15.7143V66H12.5714V62.8571ZM15.7143 62.8571H18.8571V66H15.7143V62.8571ZM18.8571 62.8571H22V66H18.8571V62.8571ZM31.4286 62.8571H34.5714V66H31.4286V62.8571ZM34.5714 62.8571H37.7143V66H34.5714V62.8571ZM37.7143 62.8571H40.8571V66H37.7143V62.8571ZM50.2857 62.8571H53.4286V66H50.2857V62.8571ZM53.4286 62.8571H56.5714V66H53.4286V62.8571ZM56.5714 62.8571H59.7143V66H56.5714V62.8571Z" fill="black"/>
</svg>
