<svg width="24" height="24" viewBox="0 0 24 24" fill="none" xmlns="http://www.w3.org/2000/svg">
<g clip-path="url(#clip0_4140_21063)">
<path d="M9.75006 6.28097C9.91742 6.41181 10.0698 6.55163 10.2188 6.70285C10.2457 6.72925 10.2726 6.75566 10.3003 6.78286C10.7803 7.29262 10.984 8.03277 10.9688 8.71847C10.9377 8.83277 10.9065 8.94703 10.8751 9.06125C10.8391 9.26722 10.8309 9.35635 10.9486 9.53022C11.1671 9.78342 11.415 10.0051 11.6719 10.2185C11.8074 10.1571 11.9046 10.0913 12.0098 9.98648C12.0379 9.95863 12.0661 9.93079 12.0951 9.9021C12.1249 9.87212 12.1547 9.84214 12.1854 9.81125C12.2163 9.78039 12.2473 9.74953 12.2791 9.71774C12.3443 9.6526 12.4094 9.58735 12.4744 9.52198C12.5742 9.42164 12.6746 9.32181 12.775 9.22201C12.8382 9.15869 12.9015 9.09533 12.9647 9.03195C13.0099 8.98698 13.0099 8.98698 13.0561 8.94109C13.2111 8.80762 13.2111 8.80762 13.2657 8.62472C13.1796 8.54775 13.0939 8.47752 13.002 8.40793C12.9745 8.38706 12.9469 8.36619 12.9185 8.3447C12.458 8.00288 11.9788 7.75331 11.4353 7.57101C11.2673 7.51161 11.1761 7.47738 11.062 7.33584C10.9934 7.16197 11.0071 7.06892 11.0626 6.89035C11.3079 6.49683 11.8688 6.26333 12.2996 6.14273C12.4348 6.1183 12.5662 6.10258 12.7032 6.09347C12.7368 6.09027 12.7705 6.08707 12.8052 6.08377C13.7156 6.03748 14.5662 6.44494 15.2344 7.03097C15.5371 7.31304 15.8261 7.60923 16.1163 7.90402C16.1948 7.98321 16.2733 8.06238 16.3518 8.14151C16.5422 8.33345 16.7323 8.5258 16.9219 8.71847C16.9566 8.68843 16.9914 8.65839 17.0271 8.62745C17.1844 8.50998 17.2661 8.48355 17.4586 8.49257C17.7338 8.58096 17.9248 8.83408 18.1172 9.04074C18.1645 9.08972 18.2119 9.13861 18.2593 9.18741C18.6427 9.58464 18.6427 9.58464 18.6797 9.77902C18.6543 9.95065 18.6304 9.98261 18.5182 10.106C18.4883 10.139 18.4584 10.172 18.4276 10.206C18.1247 10.5298 17.8144 10.8461 17.5029 11.1616C17.414 11.2518 17.3256 11.3425 17.2377 11.4336C17.1101 11.5657 16.981 11.6963 16.8518 11.8269C16.8127 11.8677 16.7737 11.9086 16.7334 11.9507C16.4245 12.2585 16.4245 12.2585 16.1969 12.2626C16.0365 12.235 15.9736 12.2232 15.8614 12.111C15.8312 12.0816 15.801 12.0522 15.7698 12.0219C15.7136 11.9645 15.7136 11.9645 15.6563 11.906C15.601 11.8521 15.5456 11.7983 15.49 11.7447C15.4302 11.6862 15.3704 11.6277 15.3106 11.5691C15.2816 11.5407 15.2525 11.5122 15.2226 11.483C15.1952 11.4556 15.1678 11.4282 15.1396 11.4001C15.115 11.3756 15.0904 11.3512 15.065 11.326C14.9421 11.1816 14.9052 11.0926 14.9122 10.9011C14.9562 10.7217 15.0155 10.633 15.1407 10.4997C15.0479 10.4069 14.9551 10.3141 14.8594 10.2185C14.7232 10.2801 14.6266 10.346 14.5216 10.452C14.4934 10.4801 14.4653 10.5082 14.4363 10.5372C14.3916 10.5827 14.3916 10.5827 14.346 10.629C14.3151 10.6601 14.2841 10.6912 14.2522 10.7232C14.1536 10.8223 14.0554 10.9217 13.9571 11.0212C13.8902 11.0885 13.8233 11.1559 13.7564 11.2232C13.5926 11.388 13.4291 11.5532 13.2657 11.7185C13.3772 11.951 13.5409 12.1119 13.7198 12.2956C13.7524 12.3309 13.785 12.3663 13.8186 12.4026C13.9115 12.4979 13.9991 12.5815 14.1094 12.656C14.2721 12.663 14.2721 12.663 14.4376 12.6091C15.3603 12.5377 16.0946 12.686 16.8271 13.2859C17.3621 13.7811 17.6954 14.4352 17.7316 15.1676C17.7603 16.1302 17.7603 16.1302 17.4756 16.488C17.2963 16.5677 17.1516 16.5605 16.9688 16.4997C16.8307 16.4008 16.7211 16.2804 16.607 16.1551C16.5394 16.0846 16.4719 16.014 16.4043 15.9434C16.2994 15.8318 16.1948 15.7198 16.0905 15.6076C15.9892 15.4992 15.8865 15.3921 15.7837 15.285C15.753 15.2511 15.7223 15.2171 15.6906 15.1822C15.5331 15.0109 15.5331 15.0109 15.32 14.9428C15.2059 14.9547 15.2059 14.9547 15.0469 14.9997C14.9915 15.0015 14.9915 15.0015 14.9349 15.0034C14.8235 15.0137 14.7641 15.0282 14.6719 15.0935C14.5364 15.3642 14.4461 15.6401 14.5313 15.9372C14.5921 16.0245 14.5921 16.0245 14.6736 16.1C14.7035 16.1297 14.7333 16.1595 14.7641 16.1901C14.7965 16.2214 14.829 16.2527 14.8624 16.2849C14.8955 16.3177 14.9286 16.3504 14.9627 16.3842C15.0685 16.4886 15.1749 16.5923 15.2813 16.696C15.3876 16.8003 15.4938 16.9048 15.5999 17.0094C15.6659 17.0744 15.7321 17.1392 15.7985 17.2039C15.8284 17.2332 15.8583 17.2624 15.889 17.2926C15.9154 17.3183 15.9418 17.3441 15.969 17.3706C16.0612 17.4692 16.0777 17.5271 16.0928 17.6628C16.0734 17.8611 16.0444 17.9173 15.8907 18.0466C15.3118 18.2882 14.5504 18.2619 13.9688 18.0466C13.1773 17.7203 12.6483 17.1988 12.2936 16.4204C12.1596 16.0691 12.1268 15.768 12.1319 15.3952C12.1319 15.3315 12.1319 15.3315 12.132 15.2664C12.1332 15.0786 12.1403 14.9083 12.1747 14.7229C12.2026 14.5777 12.2026 14.5777 12.1204 14.474C12.0894 14.4474 12.0584 14.4207 12.0264 14.3933C11.9955 14.3658 11.9647 14.3383 11.9329 14.31C11.9086 14.2901 11.8844 14.2702 11.8594 14.2497C11.6301 14.4405 11.4153 14.6409 11.2059 14.8533C11.1752 14.8842 11.1445 14.9151 11.1129 14.9469C11.0469 15.0135 10.9809 15.0801 10.9149 15.1467C10.8104 15.2523 10.7057 15.3576 10.6009 15.4629C10.3033 15.7622 10.0058 16.0616 9.70885 16.3615C9.52672 16.5454 9.34424 16.7289 9.16154 16.9123C9.09217 16.982 9.02293 17.0519 8.95383 17.1219C8.85725 17.2197 8.76024 17.3171 8.66313 17.4144C8.63485 17.4432 8.60657 17.4721 8.57744 17.5018C8.30894 17.7691 8.06053 17.8845 7.68151 17.9087C7.07086 17.8963 6.68018 17.478 6.27252 17.071C6.21764 17.0179 6.21764 17.0179 6.16165 16.9636C5.82984 16.6335 5.57841 16.2948 5.56353 15.8142C5.57323 15.3537 5.77888 15.0379 6.10109 14.7261C6.13449 14.6927 6.16789 14.6593 6.20231 14.6248C6.31173 14.5156 6.4221 14.4074 6.53253 14.2992C6.60904 14.2232 6.68549 14.1471 6.76188 14.071C6.96224 13.8717 7.16343 13.6733 7.36481 13.475C7.5705 13.2722 7.77538 13.0686 7.98034 12.8651C8.38197 12.4665 8.78448 12.0687 9.18756 11.6716C9.1009 11.4825 9.1009 11.4825 8.95318 11.3435C8.8769 11.3539 8.80065 11.3646 8.72465 11.3769C7.87972 11.4908 7.07971 11.3513 6.39263 10.8278C5.82641 10.3445 5.42051 9.70392 5.34381 8.95285C5.31559 8.49691 5.30294 7.98523 5.54888 7.58139C5.65112 7.47178 5.75212 7.44712 5.89974 7.43725C6.20701 7.48502 6.46656 7.87428 6.6737 8.09152C6.75608 8.17738 6.83848 8.26322 6.92091 8.34903C6.97722 8.40814 7.03316 8.46761 7.08872 8.52742C7.17 8.61468 7.25271 8.70034 7.33581 8.78585C7.36014 8.81275 7.38447 8.83965 7.40954 8.86736C7.5185 8.97716 7.58822 9.04335 7.74646 9.05314C7.85426 9.04169 7.95674 9.023 8.06256 8.99972C8.09828 8.99482 8.13401 8.98992 8.17082 8.98487C8.29108 8.96637 8.34549 8.93974 8.43756 8.8591C8.57471 8.64092 8.67012 8.41496 8.62506 8.15597C8.44356 7.82658 8.12067 7.58136 7.84283 7.33566C7.7277 7.23077 7.61325 7.12525 7.49945 7.01892C7.42866 6.95309 7.35701 6.88819 7.28442 6.82435C7.12334 6.67762 7.04124 6.59861 6.98264 6.38397C6.98481 6.20242 7.00204 6.13392 7.12506 5.99972C7.94083 5.57686 9.02063 5.80147 9.75006 6.28097ZM8.29693 6.6091C8.54572 6.90899 8.81811 7.17894 9.09729 7.45037C9.13167 7.48424 9.16605 7.51811 9.20147 7.55301C9.23258 7.58332 9.26368 7.61363 9.29573 7.64487C9.43919 7.80623 9.47023 7.88865 9.46075 8.108C9.42178 8.38615 9.34693 8.65401 9.26959 8.92355C9.25611 8.97413 9.24264 9.0247 9.22876 9.07681C9.21492 9.12521 9.20108 9.17361 9.18682 9.22348C9.1746 9.26719 9.16238 9.3109 9.14979 9.35593C9.05726 9.54194 8.91511 9.58964 8.72541 9.65593C8.56809 9.69951 8.41069 9.7427 8.25299 9.78488C8.19827 9.80029 8.14356 9.81569 8.08718 9.83157C8.03416 9.84589 7.98114 9.86021 7.92651 9.87497C7.87842 9.88806 7.83032 9.90116 7.78077 9.91465C7.61801 9.94087 7.51739 9.9394 7.35943 9.89035C7.25504 9.80587 7.16739 9.72578 7.07562 9.62942C7.05001 9.60348 7.02439 9.57753 6.998 9.5508C6.91674 9.46823 6.83633 9.38488 6.75592 9.30148C6.7008 9.24518 6.64562 9.18894 6.59039 9.13275C6.45548 8.99526 6.32133 8.85707 6.18756 8.71847C6.10291 8.9724 6.2345 9.22669 6.32818 9.46847C6.46273 9.72066 6.629 9.93549 6.84381 10.1247C6.86961 10.1478 6.89541 10.1709 6.92199 10.1947C7.39434 10.5862 7.93945 10.6463 8.53131 10.5935C8.64127 10.5644 8.75078 10.5334 8.85943 10.4997C9.17132 10.4552 9.17132 10.4552 9.32272 10.5621C9.35215 10.5891 9.38158 10.6162 9.4119 10.6441C9.4446 10.674 9.47729 10.7038 9.51097 10.7346C9.66245 10.878 9.81235 11.0227 9.96033 11.1697C10.0096 11.2184 10.0096 11.2184 10.0598 11.268C10.167 11.3741 10.2741 11.4803 10.381 11.5866C10.4178 11.6232 10.4546 11.6597 10.4925 11.6973C10.6866 11.8902 10.8806 12.0833 11.0745 12.2765C11.2347 12.4361 11.3952 12.5953 11.556 12.7542C11.7509 12.9467 11.9451 13.1398 12.139 13.3334C12.2128 13.4068 12.2868 13.4801 12.3609 13.5531C12.4645 13.6552 12.5673 13.758 12.6699 13.861C12.7006 13.8909 12.7312 13.9207 12.7628 13.9515C12.9454 14.1367 13.0337 14.2728 13.0782 14.531C13.0566 14.6511 13.0566 14.6511 13.0137 14.7653C12.8553 15.2832 12.8874 15.8248 13.1251 16.3122C13.4329 16.8312 13.8219 17.1442 14.3907 17.3435C14.5339 17.3716 14.6662 17.3831 14.8126 17.3903C14.6548 17.1972 14.4918 17.0216 14.309 16.8518C14.2697 16.8148 14.2305 16.7778 14.19 16.7397C14.1086 16.6634 14.0265 16.588 13.9435 16.5134C13.614 16.1984 13.614 16.1984 13.6046 15.9467C13.6337 15.6571 13.7107 15.3757 13.7901 15.0964C13.8038 15.0438 13.8175 14.9912 13.8316 14.937C13.8456 14.8867 13.8597 14.8364 13.8741 14.7846C13.8867 14.7392 13.8992 14.6938 13.9121 14.6471C14.0046 14.4577 14.1448 14.4108 14.3372 14.3435C14.4945 14.2999 14.6519 14.2567 14.8096 14.2146C14.8917 14.1915 14.8917 14.1915 14.9754 14.1679C15.0285 14.1536 15.0815 14.1392 15.1361 14.1245C15.1842 14.1114 15.2323 14.0983 15.2818 14.0848C15.4768 14.0534 15.6298 14.0613 15.7978 14.1707C15.8394 14.2099 15.8394 14.2099 15.8819 14.2499C15.9136 14.2795 15.9453 14.309 15.978 14.3395C16.0111 14.3717 16.0441 14.404 16.0782 14.4372C16.1127 14.4707 16.1472 14.5043 16.1827 14.5388C16.2893 14.6438 16.3949 14.7498 16.5001 14.8562C16.5364 14.8927 16.5727 14.9292 16.6101 14.9669C16.6985 15.0558 16.7868 15.1449 16.8751 15.2341C16.9541 14.9607 16.8455 14.7379 16.7344 14.4841C16.4532 13.9857 16.0243 13.6133 15.4765 13.4349C15.0484 13.3514 14.6182 13.3697 14.2032 13.4997C13.8914 13.5443 13.8914 13.5443 13.7399 13.4375C13.7105 13.4105 13.6811 13.3835 13.6508 13.3556C13.6181 13.3257 13.5854 13.2958 13.5517 13.265C13.3995 13.1207 13.2496 12.9745 13.1015 12.826C13.0522 12.7768 13.0522 12.7768 13.0018 12.7266C12.8944 12.6194 12.7872 12.512 12.6799 12.4046C12.6049 12.3296 12.5299 12.2546 12.4549 12.1796C12.2983 12.0232 12.1419 11.8666 11.9855 11.71C11.7847 11.509 11.5838 11.3082 11.3827 11.1074C11.2281 10.953 11.0736 10.7984 10.9191 10.6438C10.845 10.5697 10.7709 10.4956 10.6967 10.4215C10.5935 10.3184 10.4904 10.2151 10.3874 10.1118C10.3566 10.0811 10.3258 10.0504 10.294 10.0188C10.2661 9.99075 10.2382 9.96269 10.2094 9.93379C10.1729 9.89723 10.1729 9.89723 10.1356 9.85992C10.0167 9.72882 10.0243 9.61072 10.0205 9.43863C10.0313 9.32785 10.0313 9.32785 10.0776 9.17532C10.227 8.62222 10.1478 8.05975 9.86853 7.56491C9.58234 7.11837 9.18496 6.80005 8.67193 6.65597C8.54564 6.63199 8.42544 6.61862 8.29693 6.6091ZM12.3282 6.9841C12.4887 7.17025 12.7134 7.26274 12.9269 7.37686C13.6056 7.78192 14.1383 8.35489 14.6889 8.9133C14.8034 9.02922 14.9183 9.14473 15.0331 9.26028C15.2569 9.48553 15.4802 9.71123 15.7032 9.93722C15.8837 9.85369 15.9976 9.74612 16.1368 9.60324C16.1995 9.53925 16.1995 9.53925 16.2635 9.47397C16.2951 9.44121 16.3268 9.40846 16.3594 9.37472C16.061 9.01957 15.7382 8.69112 15.4121 8.36152C15.3409 8.28932 15.27 8.21683 15.1994 8.14404C14.542 7.46637 13.9147 6.95548 12.9368 6.88961C12.7265 6.89072 12.5307 6.92988 12.3282 6.9841ZM13.8751 9.2341C13.3491 9.76003 12.8232 10.286 12.2813 10.8278C12.3741 10.9361 12.4669 11.0444 12.5626 11.156C12.7175 11.0785 12.7891 11.0348 12.9047 10.9182C12.9484 10.8746 12.9484 10.8746 12.9929 10.83C13.0237 10.7987 13.0545 10.7674 13.0862 10.7352C13.1182 10.7031 13.1502 10.671 13.1832 10.6379C13.2851 10.5354 13.3867 10.4326 13.4883 10.3298C13.5575 10.2602 13.6266 10.1906 13.6958 10.1211C13.8652 9.95065 14.0343 9.77995 14.2032 9.6091C14.1257 9.41199 14.062 9.38364 13.8751 9.2341ZM17.3438 9.46847C16.8643 9.948 16.3847 10.4275 15.8907 10.9216C15.9835 11.0299 16.0763 11.1382 16.1719 11.2497C16.3218 11.1748 16.3906 11.1365 16.5012 11.0248C16.5275 10.9986 16.5537 10.9723 16.5808 10.9452C16.6224 10.9029 16.6224 10.9029 16.6649 10.8597C16.6937 10.8307 16.7226 10.8017 16.7523 10.7718C16.8442 10.6794 16.9358 10.5866 17.0274 10.4939C17.0898 10.431 17.1521 10.3682 17.2145 10.3054C17.3672 10.1517 17.5197 9.99766 17.6719 9.84347C17.5945 9.64637 17.5307 9.61801 17.3438 9.46847ZM9.65785 12.3603C9.62939 12.3883 9.60093 12.4163 9.57161 12.4452C9.52488 12.4918 9.52488 12.4918 9.47722 12.5394C9.42793 12.5881 9.42793 12.5881 9.37765 12.6378C9.26856 12.7458 9.15983 12.8541 9.05114 12.9625C8.97572 13.0375 8.9003 13.1125 8.82488 13.1875C8.66657 13.345 8.50847 13.5027 8.35048 13.6606C8.1479 13.8629 7.94458 14.0645 7.74106 14.2659C7.58492 14.4206 7.42931 14.5759 7.27384 14.7313C7.19911 14.8058 7.12418 14.8802 7.04906 14.9543C6.944 15.0581 6.83971 15.1626 6.73558 15.2674C6.70434 15.2979 6.67309 15.3284 6.6409 15.3599C6.47544 15.5281 6.37583 15.6421 6.37506 15.8903C6.49994 16.1656 6.73915 16.3673 6.94928 16.5788C6.98837 16.6195 7.02747 16.6601 7.06774 16.702C7.35303 17.0015 7.35303 17.0015 7.73443 17.1091C7.97208 16.9746 8.15351 16.7966 8.34452 16.6034C8.3761 16.5718 8.40769 16.5403 8.44024 16.5077C8.54394 16.404 8.6473 16.2999 8.75067 16.1958C8.82276 16.1235 8.89487 16.0513 8.96701 15.979C9.15632 15.7894 9.34535 15.5994 9.53433 15.4094C9.7274 15.2154 9.92075 15.0216 10.1141 14.8278C10.493 14.4479 10.8716 14.0676 11.2501 13.6872C11.1599 13.4906 11.0255 13.3554 10.8736 13.2046C10.8459 13.1767 10.8181 13.1489 10.7895 13.1202C10.731 13.0617 10.6724 13.0032 10.6137 12.9448C10.5235 12.8552 10.4338 12.765 10.3442 12.6748C10.2873 12.618 10.2304 12.5612 10.1734 12.5044C10.1465 12.4773 10.1196 12.4502 10.0919 12.4223C9.87868 12.206 9.87868 12.206 9.65785 12.3603Z" fill="#FA2525"/>
<path d="M11.4647 0.318449C11.5059 0.318118 11.547 0.317787 11.5894 0.317446C13.3245 0.306664 13.3245 0.306664 14.1096 0.468595C14.1563 0.478157 14.2029 0.487719 14.251 0.497571C15.7692 0.8187 17.2238 1.38195 18.5159 2.24984C18.5275 2.21764 18.5391 2.18543 18.551 2.15225C18.6193 1.99285 18.7055 1.84862 18.7971 1.70199C18.8222 1.66116 18.8222 1.66116 18.8477 1.6195C18.9179 1.50615 18.9838 1.40697 19.0784 1.31234C19.1732 1.29495 19.1732 1.29495 19.2835 1.29184C19.3196 1.28996 19.3557 1.28809 19.393 1.28616C19.5523 1.32505 19.5942 1.41426 19.6878 1.54672C19.7384 1.65283 19.7851 1.76089 19.8288 1.87007C19.8479 1.91745 19.8479 1.91745 19.8674 1.96579C19.9092 2.06954 19.9504 2.1735 19.9915 2.27749C20.0206 2.35006 20.0496 2.42262 20.0787 2.49517C20.1394 2.64696 20.1999 2.79886 20.2601 2.95085C20.3372 3.14528 20.4149 3.33945 20.4927 3.53355C20.5528 3.68326 20.6125 3.83308 20.6721 3.98294C20.7007 4.05456 20.7293 4.12616 20.758 4.19772C20.7981 4.29789 20.8378 4.3982 20.8774 4.49855C20.9001 4.55551 20.9227 4.61247 20.9461 4.67116C21.0757 5.04631 21.0757 5.04631 20.9885 5.23813C20.832 5.43936 20.6652 5.46237 20.4274 5.49532C20.393 5.50036 20.3587 5.50541 20.3234 5.5106C20.2099 5.52718 20.0963 5.54325 19.9827 5.55929C19.9037 5.57069 19.8248 5.58212 19.7458 5.59357C19.5801 5.61751 19.4144 5.64121 19.2487 5.66472C19.0366 5.69481 18.8246 5.72539 18.6127 5.75614C18.4495 5.77978 18.2862 5.80322 18.123 5.82659C18.0449 5.83779 17.9667 5.84904 17.8886 5.86034C17.7791 5.87614 17.6696 5.89167 17.5601 5.90712C17.528 5.9118 17.496 5.91647 17.4629 5.92129C16.9905 5.98713 16.9905 5.98713 16.7874 5.88559C16.6646 5.73747 16.6488 5.65679 16.6579 5.46774C16.7087 5.25632 16.8233 5.08478 16.9395 4.90304C17.0214 4.7829 17.0214 4.7829 17.0628 4.64047C17.0315 4.62947 17.0003 4.61847 16.9681 4.60714C16.8254 4.54541 16.6996 4.472 16.5674 4.39085C14.5978 3.18292 12.1688 2.82029 9.92323 3.35811C8.32831 3.76528 6.95324 4.54013 5.76589 5.67172C5.72698 5.70761 5.68807 5.7435 5.64797 5.78048C4.16928 7.18763 3.21274 9.41773 3.13508 11.4488C3.11177 12.4868 3.18031 13.4564 3.47398 14.4568C3.59366 14.8748 3.59366 14.8748 3.51589 15.0936C3.38145 15.2475 3.23702 15.343 3.05996 15.4433C3.00769 15.4732 2.95543 15.503 2.90157 15.5338C2.84659 15.5648 2.7916 15.5958 2.7366 15.6268C2.62952 15.6877 2.52246 15.7486 2.41543 15.8095C2.33793 15.8535 2.33793 15.8535 2.25886 15.8983C2.08336 15.9993 1.91069 16.1045 1.73884 16.2116C1.59481 16.2908 1.47639 16.3156 1.31277 16.3123C1.1704 16.266 1.10359 16.2181 1.03174 16.0858C0.917676 15.826 0.826848 15.5659 0.750268 15.2928C0.738319 15.2505 0.72637 15.2081 0.714059 15.1645C0.631792 14.8648 0.562745 14.5639 0.504174 14.2586C0.497105 14.2218 0.490035 14.185 0.482751 14.1471C0.460658 14.0253 0.441008 13.9034 0.422143 13.7811C0.409573 13.7013 0.409573 13.7013 0.396749 13.6199C0.320813 13.0865 0.311601 12.5586 0.313745 12.0204C0.313846 11.9747 0.313947 11.9291 0.314051 11.8821C0.316441 11.2098 0.331952 10.551 0.469018 9.89047C0.483362 9.8206 0.483362 9.8206 0.497995 9.74932C0.716041 8.71828 1.03915 7.74415 1.50027 6.79672C1.51706 6.76217 1.53385 6.72762 1.55115 6.69203C2.01625 5.74821 2.62755 4.88117 3.34725 4.11477C3.45603 3.99815 3.56101 3.87925 3.66531 3.75863C3.83665 3.56553 4.02146 3.39986 4.21902 3.23422C4.26228 3.19621 4.30555 3.15821 4.35012 3.11905C6.27024 1.43998 8.89711 0.332297 11.4647 0.318449ZM3.89089 4.68735C1.83582 7.00716 0.995061 9.88435 1.12527 12.9373C1.17648 13.7363 1.37208 14.5147 1.59402 15.2811C1.85257 15.2092 2.06372 15.0848 2.29128 14.9471C2.32802 14.9252 2.36476 14.9032 2.40261 14.8806C2.4926 14.8269 2.58244 14.7728 2.67214 14.7186C2.66553 14.6868 2.65893 14.655 2.65212 14.6222C2.62143 14.4737 2.59112 14.3252 2.56082 14.1766C2.55042 14.1266 2.54003 14.0766 2.52932 14.0251C2.39484 13.3626 2.326 12.7183 2.32937 12.0438C2.32946 12.008 2.32954 11.9723 2.32963 11.9354C2.33202 11.3386 2.3669 10.7583 2.48464 10.1717C2.49294 10.1303 2.50123 10.089 2.50977 10.0463C2.62757 9.47821 2.78556 8.92944 3.00027 8.39047C3.01348 8.3571 3.02669 8.32373 3.0403 8.28935C3.43548 7.3087 4.00877 6.36252 4.73153 5.58822C4.81805 5.49533 4.89946 5.40003 4.98074 5.30258C6.48418 3.59412 8.82026 2.55716 11.0662 2.35207C11.3743 2.33303 11.6829 2.33212 11.9915 2.33188C12.0279 2.33184 12.0643 2.33181 12.1018 2.33178C12.6881 2.33259 13.2528 2.365 13.8284 2.48422C13.8875 2.49591 13.8875 2.49591 13.9478 2.50784C14.8786 2.69571 15.76 3.01576 16.594 3.46859C16.6255 3.48533 16.6571 3.50207 16.6896 3.51932C17.1299 3.75345 17.5973 4.00311 17.9534 4.35922C17.9613 4.44784 17.9613 4.44784 17.9622 4.55844C17.9628 4.59445 17.9635 4.63047 17.9642 4.66757C17.9519 4.79718 17.9098 4.89596 17.8596 5.01547C18.2905 4.98685 18.7159 4.93253 19.1429 4.87007C19.2528 4.85411 19.3627 4.8388 19.4727 4.82348C19.5426 4.81336 19.6125 4.8032 19.6825 4.793C19.7153 4.7885 19.7482 4.78401 19.782 4.77937C19.8605 4.76754 19.9384 4.75129 20.0159 4.73422C20.0742 4.64393 20.0742 4.64393 20.0382 4.55445C20.0168 4.50231 20.0168 4.50231 19.9949 4.4491C19.979 4.40969 19.963 4.37028 19.9466 4.32968C19.9201 4.26581 19.9201 4.26581 19.893 4.20065C19.8664 4.1353 19.8664 4.1353 19.8392 4.06863C19.7822 3.92903 19.7248 3.78963 19.6673 3.65024C19.6286 3.55583 19.59 3.46141 19.5514 3.36697C19.4566 3.13506 19.3614 2.90333 19.2659 2.67172C19.235 2.67172 19.204 2.67172 19.1721 2.67172C19.1008 2.77572 19.1008 2.77572 19.0315 2.90317C18.9008 3.13552 18.9008 3.13552 18.7971 3.18734C18.4638 3.22287 18.3123 3.14105 18.0501 2.94418C14.4284 0.39078 9.29249 0.528464 3.89089 4.68735Z" fill="#FA2525"/>
<path d="M22.8285 7.73439C23.0023 7.85305 23.0429 8.05599 23.1038 8.24709C23.122 8.30339 23.122 8.30339 23.1405 8.36082C23.7138 10.1736 23.921 12.2329 23.5316 14.1094C23.5172 14.1793 23.5172 14.1793 23.5026 14.2505C23.0492 16.3944 22.0975 18.2219 20.6722 19.875C20.6417 19.9114 20.6112 19.9478 20.5797 19.9852C20.4235 20.1695 20.2595 20.3308 20.0749 20.4866C19.9987 20.5525 19.9245 20.6207 19.8515 20.6902C19.2404 21.2724 18.5505 21.7631 17.8128 22.1719C17.7793 22.1907 17.7457 22.2096 17.7111 22.229C16.5677 22.8664 15.346 23.2814 14.0628 23.5313C14.0043 23.543 14.0043 23.543 13.9446 23.5549C12.6668 23.7986 11.1648 23.794 9.89096 23.5313C9.82098 23.5169 9.82098 23.5169 9.7496 23.5023C8.23136 23.1812 6.77679 22.6179 5.48471 21.75C5.47292 21.7823 5.46114 21.8146 5.449 21.8478C5.38189 22.0057 5.30065 22.1479 5.21224 22.2949C5.181 22.3478 5.14977 22.4006 5.11758 22.455C5.01399 22.5965 4.94014 22.6628 4.78158 22.7344C4.61969 22.7311 4.53331 22.7144 4.40715 22.6117C4.29235 22.4758 4.23032 22.3334 4.16601 22.1698C4.15265 22.1369 4.13929 22.1041 4.12552 22.0702C4.08168 21.9619 4.03856 21.8533 3.99551 21.7447C3.96521 21.669 3.93489 21.5934 3.90454 21.5177C3.84113 21.3592 3.77811 21.2006 3.71532 21.0419C3.63495 20.8389 3.55344 20.6363 3.47161 20.4338C3.40871 20.2777 3.34651 20.1214 3.28452 19.9649C3.25476 19.8901 3.22476 19.8154 3.19452 19.7408C3.15226 19.6363 3.11099 19.5315 3.06994 19.4265C3.05736 19.396 3.04478 19.3655 3.03181 19.334C2.95068 19.1223 2.9495 18.9698 3.00033 18.75C3.07654 18.6299 3.12982 18.6126 3.26684 18.5727C3.34882 18.5586 3.34882 18.5586 3.43246 18.5442C3.48019 18.5359 3.48019 18.5359 3.52889 18.5274C3.64944 18.5069 3.77016 18.4877 3.89096 18.4688C3.94269 18.4606 3.99443 18.4525 4.04774 18.4441C4.42108 18.3858 4.79474 18.33 5.16862 18.2753C5.33531 18.2509 5.5019 18.2259 5.66848 18.2008C5.79825 18.1813 5.92808 18.1623 6.05793 18.1434C6.14895 18.13 6.2399 18.1161 6.33085 18.1023C6.62399 18.0602 6.88128 18.0307 7.17221 18.0938C7.30713 18.1992 7.312 18.2766 7.34213 18.4453C7.33503 18.6967 7.19206 18.8885 7.06106 19.0952C6.97938 19.2168 6.97938 19.2168 6.93783 19.3594C6.96907 19.3704 7.00031 19.3814 7.0325 19.3927C7.17524 19.4545 7.30097 19.5279 7.43321 19.609C9.43512 20.8368 11.8552 21.1594 14.1326 20.6321C16.343 20.0853 18.3561 18.6636 19.5384 16.708C20.8047 14.5477 21.1871 12.1271 20.5768 9.6874C20.546 9.57059 20.5133 9.45431 20.4787 9.33858C20.4328 9.1689 20.4326 9.07362 20.4847 8.90627C20.6184 8.75183 20.7637 8.65679 20.9406 8.55654C20.9929 8.52669 21.0452 8.49684 21.099 8.46608C21.154 8.43506 21.209 8.40406 21.264 8.37307C21.3711 8.31219 21.4781 8.25128 21.5852 8.19033C21.6368 8.16103 21.6884 8.13174 21.7416 8.10157C21.9181 8.00003 22.0922 7.89481 22.2655 7.78793C22.4675 7.67316 22.6051 7.68652 22.8285 7.73439ZM22.0883 8.84181C22.0442 8.86719 22.0001 8.89257 21.9547 8.91872C21.9085 8.94555 21.8623 8.97238 21.8148 9.00002C21.7683 9.02685 21.7217 9.05368 21.6738 9.08132C21.5586 9.14779 21.4435 9.21445 21.3285 9.28127C21.3351 9.31284 21.3417 9.34441 21.3485 9.37694C21.3792 9.52468 21.4095 9.6725 21.4398 9.82033C21.4502 9.86994 21.4606 9.91955 21.4713 9.97066C21.6082 10.643 21.6748 11.2975 21.6712 11.9824C21.6711 12.0342 21.6711 12.0342 21.671 12.0871C21.6659 13.2998 21.45 14.4807 21.0003 15.6094C20.9871 15.6428 20.9739 15.6761 20.9603 15.7105C20.5651 16.6912 19.9918 17.6373 19.2691 18.4116C19.1825 18.5045 19.1011 18.5998 19.0199 18.6973C17.5164 20.4058 15.1819 21.4437 12.9341 21.6479C12.6261 21.6667 12.3176 21.6677 12.0091 21.668C11.9727 21.668 11.9363 21.6681 11.8988 21.6681C11.3125 21.6673 10.7478 21.6349 10.1722 21.5156C10.1328 21.5078 10.0934 21.5001 10.0528 21.492C9.12197 21.3042 8.24059 20.9841 7.40658 20.5313C7.37505 20.5145 7.34353 20.4978 7.31105 20.4805C6.18666 19.8827 6.18666 19.8827 6.02816 19.5485C5.99791 19.3939 6.00775 19.3225 6.06478 19.1778C6.07868 19.1411 6.09258 19.1045 6.1069 19.0668C6.11814 19.0396 6.12938 19.0124 6.14096 18.9844C5.62298 19.0365 5.10689 19.101 4.59115 19.1719C4.53231 19.1797 4.47347 19.1875 4.41285 19.1955C4.35803 19.2032 4.30321 19.2108 4.24673 19.2188C4.17267 19.2289 4.17267 19.2289 4.09712 19.2393C4.06002 19.248 4.02293 19.2567 3.98471 19.2656C3.92632 19.3562 3.92632 19.3562 3.96245 19.4472C3.97671 19.4828 3.99097 19.5184 4.00566 19.5551C4.02162 19.5954 4.03758 19.6358 4.05402 19.6773C4.07169 19.7209 4.08936 19.7645 4.10757 19.8095C4.12532 19.8541 4.14308 19.8987 4.16137 19.9446C4.21835 20.0876 4.27584 20.2303 4.33334 20.3731C4.37198 20.4697 4.41058 20.5664 4.44915 20.6631C4.54396 20.9006 4.63918 21.1379 4.73471 21.375C4.8522 21.2602 4.94628 21.161 5.02181 21.0147C5.10971 20.8594 5.10971 20.8594 5.20346 20.8125C5.53686 20.777 5.68824 20.8588 5.95053 21.0557C7.10175 21.8661 8.4239 22.395 9.79721 22.6875C9.86657 22.7023 9.86657 22.7023 9.93733 22.7174C11.3204 22.9971 12.8247 22.9814 14.2035 22.6875C14.2495 22.6777 14.2955 22.6679 14.3428 22.6578C16.7299 22.1287 18.9744 20.7791 20.4847 18.8438C20.5222 18.7971 20.5598 18.7505 20.5984 18.7024C21.9611 16.9937 22.8641 14.7299 22.8865 12.5307C22.887 12.4931 22.8874 12.4555 22.8879 12.4167C22.9003 11.1323 22.7653 9.95763 22.4066 8.71877C22.2747 8.71877 22.2023 8.77593 22.0883 8.84181Z" fill="#FA2525"/>
</g>
<defs>
<clipPath id="clip0_4140_21063">
<rect width="24" height="24" fill="white"/>
</clipPath>
</defs>
</svg>
