<svg id="Слой_1" data-name="Слой 1" xmlns="http://www.w3.org/2000/svg" viewBox="0 0 128.01 47"><defs><style>.cls-1,.cls-3{fill:#ff4f00;}.cls-1,.cls-2,.cls-3,.cls-4{stroke:#ff4f00;stroke-miterlimit:10;}.cls-1{stroke-width:0.75px;}.cls-2{fill:#fff;}.cls-2,.cls-3{stroke-width:0.5px;}.cls-4{fill:none;stroke-width:4px;}</style></defs><path class="cls-1" d="M30.41,30.38l-1,4.44s-6.49,1.44-8.54-1a3.59,3.59,0,0,1-.68-2.73L22.9,15h7.17c-.15.84-.38,2.16-.68,3.76-.34,1.82-.69,3.65-1,5.47-.78,4.09-1,5.16-.34,5.8A2.71,2.71,0,0,0,30.41,30.38Z"/><path class="cls-1" d="M43.39,14a3.43,3.43,0,0,1-.68,2,4,4,0,0,1-3.25,1.37c-.29,0-2.78-.11-3.58-2.05a3.56,3.56,0,0,1,.34-3.08,4.09,4.09,0,0,1,4.1-1.71,3.69,3.69,0,0,1,2.39,1.37A3.43,3.43,0,0,1,43.39,14Z"/><path class="cls-1" d="M50.9,34.82H43.73l3.08-16h6.83Q52.27,26.8,50.9,34.82Z"/><path class="cls-1" d="M61.49,34.82H54.32l2-11.61h7.51Q62.7,29,61.49,34.82Z"/><path class="cls-1" d="M72.42,34.82H64.91q1.2-5.8,2.39-11.61c0-.14.65-2.24,2.39-2.73s4.1.85,4.78,3.41Z"/><path class="cls-1" d="M51.93,22.19c-.07-.46.75-1,2.39-2.05a12.5,12.5,0,0,1,2.39-1.37,6.68,6.68,0,0,1,4.1,0,4.74,4.74,0,0,1,1.37.68,14.66,14.66,0,0,1,1.36,1.37,7.64,7.64,0,0,1,2.39-1.71A7,7,0,0,1,69,18.43a5.75,5.75,0,0,1,3.41,1,5.88,5.88,0,0,1,2,4.79c-.11,1.79-1.13,4-2.39,4.09-.88.06-1.74-.95-2.39-1.7-1-1.14-1.24-2.11-1.71-2.05s-.73,1.41-1,1.36,0-1.11-.69-1.7a1.6,1.6,0,0,0-1.36-.35c-.87.19-1.33,1.17-1.71,2.05-1.27,3-1.88,5.49-2.05,5.47s.6-3.35-.68-6.83c-.09-.24-.26-1.43-.75-1.5s-.69.8-1.3.81-.68-.8-1.48-1.1-1.3.41-2.62.42C53.29,23.22,52,22.78,51.93,22.19Z"/><path class="cls-1" d="M78.23,21.16l1-.68a12.76,12.76,0,0,1,6.15-2.05,13.63,13.63,0,0,1,2.39,0,13.06,13.06,0,0,1,3.08.68,5.32,5.32,0,0,1,2.39,1.71,6,6,0,0,1,1,3.76c.08,3.46-1.71,10.24-1.71,10.24H86.43V33.46l-.12.06a5,5,0,0,0-.91.62A8.19,8.19,0,0,1,82,35.51a5.48,5.48,0,0,1-5.13-2,4.53,4.53,0,0,1-.68-2.73c.21-2.95,3.28-4.38,3.41-4.44a12.75,12.75,0,0,1,2.74-1,13.27,13.27,0,0,1,4.44-.34h.68a1.05,1.05,0,0,0,.12-.81c-.28-.92-2.31-1.39-3.88-.9a8.88,8.88,0,0,0-2.39,1.37h0Z"/><path class="cls-2" d="M87.11,28.33h0a6.39,6.39,0,0,1-.34,1.37,2.77,2.77,0,0,1-1.37,1.37,2.26,2.26,0,0,1-2.05,0,1.51,1.51,0,0,1-.68-1A1.37,1.37,0,0,1,83,29c.13-.15.47-.5,1.71-.69A8.7,8.7,0,0,1,87.11,28.33Z"/><path class="cls-3" d="M98.72,18.77,95.65,34.82h7.51l2.73-16H98.72"/><path class="cls-3" d="M103.5,21.85l2-1a6.25,6.25,0,0,1,6.15-2.39c-.46,1.94-.91,3.87-1.37,5.81a4.86,4.86,0,0,0-3.75.34,4.14,4.14,0,0,0-1.71,1.71c-.26.5-.5,1.29-1,1.36-.17,0-.22,0-.34,0-.39.17-.18,1.1-.34,2.05s-.61,2.05-1,2.05c-.71,0-2-3.42-1-6.49A7.48,7.48,0,0,1,103.5,21.85Z"/><path class="cls-3" d="M56.37,27.31A.7.7,0,0,1,56,27c-.38-.56-.13-1-.34-1.71a1.59,1.59,0,0,0-.69-1,1.76,1.76,0,0,0-2,.68,6.16,6.16,0,0,0-.34.68,2.64,2.64,0,0,1-1,1.37c-.69.62-.75.77-.82.74s0-1.14,1.16-5.18l4.78-1.37a3.87,3.87,0,0,1,2,3.76C58.51,26.27,57,27.56,56.37,27.31Z"/><rect class="cls-4" x="3.13" y="3.73" width="121.42" height="40.82" rx="6.63"/><polygon class="cls-1" points="18.46 23.55 31.78 23.55 32.8 18.77 19.48 18.77 18.46 23.55"/><polygon class="cls-1" points="35.19 18.77 32.12 34.82 39.63 34.82 42.71 18.77 35.19 18.77"/><line class="cls-3" x1="100.07" y1="18.82" x2="98.48" y2="18.77"/></svg>