<svg width="16" height="16" viewBox="0 0 16 16" fill="none" xmlns="http://www.w3.org/2000/svg">
<g clip-path="url(#clip0_2460_13047)">
<path d="M8.42992 3.73106H7.57099C7.49242 3.73106 7.42813 3.79535 7.42813 3.87392V8.78999C7.42813 8.83642 7.44956 8.87927 7.48706 8.90606L10.4388 11.0614C10.5031 11.1078 10.5924 11.0953 10.6388 11.0311L11.1496 10.3346C11.1978 10.2686 11.1835 10.1793 11.1192 10.1346L8.57277 8.29356V3.87392C8.57277 3.79535 8.50849 3.73106 8.42992 3.73106ZM12.3549 5.07392L15.1549 5.75785C15.2442 5.77927 15.3317 5.71142 15.3317 5.62035L15.346 2.73642C15.346 2.61677 15.2085 2.54892 15.1156 2.62392L12.3013 4.82213C12.2801 4.83858 12.2639 4.86071 12.2546 4.88596C12.2454 4.9112 12.2434 4.93855 12.249 4.96485C12.2546 4.99116 12.2675 5.01535 12.2863 5.03464C12.305 5.05393 12.3288 5.06755 12.3549 5.07392ZM15.3496 10.4507L14.3371 10.1025C14.3018 10.0904 14.2631 10.0926 14.2294 10.1086C14.1957 10.1246 14.1696 10.1532 14.1567 10.1882C14.1228 10.2793 14.0871 10.3686 14.0496 10.4578C13.7317 11.2096 13.2763 11.8864 12.6942 12.4668C12.1185 13.0442 11.4363 13.5045 10.6853 13.8221C9.90729 14.1511 9.07101 14.3199 8.22635 14.3186C7.37277 14.3186 6.54599 14.1525 5.76742 13.8221C5.01642 13.5045 4.33417 13.0442 3.75849 12.4668C3.17813 11.8864 2.72277 11.2096 2.40313 10.4578C2.07602 9.67942 1.90842 8.84328 1.91027 7.99892C1.91027 7.14535 2.07635 6.31677 2.4067 5.5382C2.72456 4.78642 3.17992 4.10963 3.76206 3.52927C4.33774 2.95181 5.01999 2.49152 5.77099 2.17392C6.54599 1.84356 7.37456 1.67749 8.22813 1.67749C9.0817 1.67749 9.90849 1.84356 10.6871 2.17392C11.4381 2.49152 12.1203 2.95181 12.696 3.52927C12.8781 3.7132 13.0496 3.90427 13.2067 4.10606L14.2746 3.27035C12.8692 1.47392 10.6817 0.318559 8.22456 0.320345C3.94599 0.322131 0.510274 3.79713 0.553131 8.07749C0.595988 12.2828 4.01563 15.6775 8.22813 15.6775C11.5406 15.6775 14.3621 13.5775 15.4371 10.6364C15.4638 10.5614 15.4246 10.4775 15.3496 10.4507Z" fill="#EF5A24"/>
</g>
<defs>
<clipPath id="clip0_2460_13047">
<rect width="16" height="16" fill="white"/>
</clipPath>
</defs>
</svg>
