<svg width="72" height="25" viewBox="0 0 72 25" fill="none" xmlns="http://www.w3.org/2000/svg">
<rect width="72" height="25" rx="3" fill="#725BCF"/>
<path d="M28.4145 4.7H29.1705V11H28.4145V8.003H25.296V11H24.54V4.7H25.296V7.247H28.4145V4.7ZM30.2529 11V4.7H34.1184V5.456H31.0089V7.247H33.5559V8.003H31.0089V10.244H34.1184V11H30.2529ZM35.1572 11V4.7H37.2362C37.5752 4.7 37.8797 4.7825 38.1497 4.9475C38.4227 5.1125 38.6387 5.336 38.7977 5.618C38.9597 5.897 39.0407 6.209 39.0407 6.554C39.0407 6.905 38.9582 7.2215 38.7932 7.5035C38.6312 7.7825 38.4122 8.0045 38.1362 8.1695C37.8632 8.3315 37.5632 8.4125 37.2362 8.4125H35.9132V11H35.1572ZM35.9132 7.6565H37.1687C37.3727 7.6565 37.5587 7.607 37.7267 7.508C37.8977 7.406 38.0327 7.2695 38.1317 7.0985C38.2337 6.9245 38.2847 6.7295 38.2847 6.5135C38.2847 6.2945 38.2337 6.0995 38.1317 5.9285C38.0327 5.7545 37.8977 5.618 37.7267 5.519C37.5587 5.417 37.3727 5.366 37.1687 5.366H35.9132V7.6565ZM39.9296 11V4.7H42.0131C42.4481 4.7 42.8561 4.7825 43.2371 4.9475C43.6181 5.1095 43.9526 5.336 44.2406 5.627C44.5286 5.915 44.7536 6.2495 44.9156 6.6305C45.0806 7.0085 45.1631 7.415 45.1631 7.85C45.1631 8.285 45.0806 8.693 44.9156 9.074C44.7536 9.452 44.5286 9.7865 44.2406 10.0775C43.9526 10.3655 43.6181 10.592 43.2371 10.757C42.8561 10.919 42.4481 11 42.0131 11H39.9296ZM40.6856 10.244H42.0131C42.3431 10.244 42.6521 10.1825 42.9401 10.0595C43.2311 9.9335 43.4861 9.761 43.7051 9.542C43.9241 9.323 44.0951 9.0695 44.2181 8.7815C44.3441 8.4905 44.4071 8.18 44.4071 7.85C44.4071 7.52 44.3441 7.211 44.2181 6.923C44.0951 6.632 43.9226 6.377 43.7006 6.158C43.4816 5.939 43.2281 5.768 42.9401 5.645C42.6521 5.519 42.3431 5.456 42.0131 5.456H40.6856V10.244ZM47.6915 4.7H48.605L50.8955 11H50.0945L49.6265 9.713H46.67L46.2065 11H45.401L47.6915 4.7ZM46.949 8.957H49.3475L48.146 5.6675L46.949 8.957ZM47.3945 4.349C47.2775 4.349 47.177 4.31 47.093 4.232C47.009 4.154 46.967 4.0565 46.967 3.9395C46.967 3.8225 47.009 3.7235 47.093 3.6425C47.177 3.5585 47.2775 3.5165 47.3945 3.5165C47.5085 3.5165 47.606 3.5585 47.687 3.6425C47.768 3.7235 47.8085 3.8225 47.8085 3.9395C47.8085 4.0565 47.768 4.154 47.687 4.232C47.606 4.31 47.5085 4.349 47.3945 4.349ZM48.9065 4.349C48.7895 4.349 48.689 4.31 48.605 4.232C48.524 4.154 48.4835 4.0565 48.4835 3.9395C48.4835 3.8225 48.524 3.7235 48.605 3.6425C48.689 3.5585 48.7895 3.5165 48.9065 3.5165C49.0205 3.5165 49.118 3.5585 49.199 3.6425C49.283 3.7235 49.325 3.8225 49.325 3.9395C49.325 4.0565 49.283 4.154 49.199 4.232C49.118 4.31 49.0205 4.349 48.9065 4.349ZM51.7158 11V4.7H52.5348L55.6803 9.632V4.7H56.4363V11H55.6218L52.4718 6.068V11H51.7158ZM57.6516 11V4.7H58.4076V11H57.6516ZM59.6259 11V4.7H60.4449L63.5904 9.632V4.7H64.3464V11H63.5319L60.3819 6.068V11H59.6259ZM61.5654 4.205L60.6969 2.909H61.2009L61.9839 3.809L62.7534 2.909H63.2619L62.4024 4.205H61.5654ZM28.4145 13.7H29.1705V20H28.4145V17.003H25.296V20H24.54V13.7H25.296V16.247H28.4145V13.7ZM32.3634 13.7H33.2769L35.5674 20H34.7664L34.2984 18.713H31.3419L30.8784 20H30.0729L32.3634 13.7ZM31.6209 17.957H34.0194L32.8179 14.6675L31.6209 17.957ZM36.3877 20V13.7H38.6017C38.9377 13.7 39.2407 13.7825 39.5107 13.9475C39.7837 14.1125 39.9997 14.336 40.1587 14.618C40.3207 14.897 40.4017 15.209 40.4017 15.554C40.4017 15.857 40.3417 16.133 40.2217 16.382C40.1017 16.631 39.9367 16.8395 39.7267 17.0075C39.5197 17.1725 39.2842 17.2865 39.0202 17.3495L40.5502 20H39.6772L38.1742 17.4125H37.1437V20H36.3877ZM37.1437 16.6565H38.5252C38.7292 16.6565 38.9167 16.607 39.0877 16.508C39.2587 16.406 39.3937 16.2695 39.4927 16.0985C39.5947 15.9245 39.6457 15.7295 39.6457 15.5135C39.6457 15.2945 39.5947 15.0995 39.4927 14.9285C39.3937 14.7545 39.2587 14.618 39.0877 14.519C38.9167 14.417 38.7292 14.366 38.5252 14.366H37.1437V16.6565ZM45.0563 13.7H45.9473L43.8143 17.1515V20H43.0583V17.1515L40.9253 13.7H41.8163L43.4363 16.3235L45.0563 13.7ZM46.7675 20V13.7H48.851C49.286 13.7 49.694 13.7825 50.075 13.9475C50.456 14.1095 50.7905 14.336 51.0785 14.627C51.3665 14.915 51.5915 15.2495 51.7535 15.6305C51.9185 16.0085 52.001 16.415 52.001 16.85C52.001 17.285 51.9185 17.693 51.7535 18.074C51.5915 18.452 51.3665 18.7865 51.0785 19.0775C50.7905 19.3655 50.456 19.592 50.075 19.757C49.694 19.919 49.286 20 48.851 20H46.7675ZM47.5235 19.244H48.851C49.181 19.244 49.49 19.1825 49.778 19.0595C50.069 18.9335 50.324 18.761 50.543 18.542C50.762 18.323 50.933 18.0695 51.056 17.7815C51.182 17.4905 51.245 17.18 51.245 16.85C51.245 16.52 51.182 16.211 51.056 15.923C50.933 15.632 50.7605 15.377 50.5385 15.158C50.3195 14.939 50.066 14.768 49.778 14.645C49.49 14.519 49.181 14.456 48.851 14.456H47.5235V19.244ZM56.2799 13.7H57.1709L55.0379 17.1515V20H54.2819V17.1515L52.1489 13.7H53.0399L54.6599 16.3235L56.2799 13.7Z" fill="white"/>
<path fill-rule="evenodd" clip-rule="evenodd" d="M8.31356 6.50598H7.26695C6.56723 6.50598 6 7.08034 6 7.78884V17.7171C6 18.4256 6.56723 19 7.26695 19H17.7331C18.4328 19 19 18.4256 19 17.7171V7.78884C19 7.08034 18.4328 6.50598 17.7331 6.50598H16.3008V8.29084C16.3008 8.78371 15.9063 9.18327 15.4195 9.18327C14.9327 9.18327 14.5381 8.78371 14.5381 8.29084V6.50598H10.0763V8.29084C10.0763 8.78371 9.68167 9.18327 9.19492 9.18327C8.70816 9.18327 8.31356 8.78371 8.31356 8.29084V6.50598ZM6.77119 17.7171V10.8008H18.2288V17.7171C18.2288 17.9944 18.0069 18.2191 17.7331 18.2191H7.26695C6.99315 18.2191 6.77119 17.9944 6.77119 17.7171Z" fill="white"/>
<path fill-rule="evenodd" clip-rule="evenodd" d="M9.19492 5C9.49914 5 9.74576 5.24972 9.74576 5.55777V8.29084C9.74576 8.59888 9.49914 8.84861 9.19492 8.84861C8.89069 8.84861 8.64407 8.59888 8.64407 8.29084V5.55777C8.64407 5.24972 8.89069 5 9.19492 5ZM15.4195 5C15.7237 5 15.9703 5.24972 15.9703 5.55777V8.29084C15.9703 8.59888 15.7237 8.84861 15.4195 8.84861C15.1153 8.84861 14.8686 8.59888 14.8686 8.29084V5.55777C14.8686 5.24972 15.1153 5 15.4195 5Z" fill="white"/>
<path d="M11.0266 17.1593L13.0584 13.0601V13.0276H10.6822V12.0278H14.3178V13.0351L12.2786 17.1593H11.0266Z" fill="white"/>
</svg>
