<svg width="24" height="24" viewBox="0 0 24 24" fill="none" xmlns="http://www.w3.org/2000/svg">
<path fill-rule="evenodd" clip-rule="evenodd" d="M0.618727 0.0379209C0.409612 0.0984988 0.110192 0.408234 0.0495203 0.62682C-0.0947975 1.14642 0.0897024 2.78151 0.429492 3.994C0.945951 5.83717 1.91712 7.48628 3.30267 8.87286C3.85331 9.42393 4.15503 9.66971 5.35079 10.5412C6.50866 11.3852 7.45995 12.6962 7.92239 14.0855C8.2499 15.0694 8.26059 15.1692 8.29777 17.5912C8.32449 19.3301 8.34634 19.8443 8.40143 20.0293C8.53862 20.4898 8.734 20.8187 9.07088 21.1564C9.36243 21.4487 9.62546 21.6202 11.3694 22.6554C12.4525 23.2983 13.4547 23.8642 13.5965 23.913C14.3403 24.1688 15.2694 23.7267 15.5738 22.972L15.6828 22.7019L15.7097 19.0447C15.7357 15.5199 15.7403 15.3718 15.8375 14.9529C16.2939 12.9846 17.3048 11.4857 18.965 10.3154C20.1665 9.46861 20.9864 8.69277 21.7311 7.69807C23.0359 5.95528 23.7523 4.07573 23.9614 1.84677C24.0636 0.757259 23.9748 0.383102 23.5514 0.119879L23.3724 0.00861663L12.0727 0.000927178C5.02966 -0.00385528 0.714845 0.0100701 0.618727 0.0379209ZM22.0592 2.08336C21.8316 3.79515 21.1608 5.38875 20.0904 6.76033C19.6587 7.31355 18.7584 8.15887 18.1196 8.61081C16.3974 9.82917 15.5002 10.8494 14.7167 12.4805C14.2753 13.3995 14.0096 14.3147 13.88 15.3629C13.8504 15.6028 13.8309 16.9721 13.8309 18.8208C13.8309 20.6636 13.8137 21.8813 13.7876 21.8813C13.7491 21.8813 12.036 20.8756 10.8302 20.1451C10.149 19.7324 10.2023 19.9517 10.1694 17.4271C10.1409 15.2427 10.1327 15.1373 9.9231 14.2388C9.67019 13.1549 9.06582 11.869 8.37208 10.9387C7.72758 10.0743 7.10656 9.48521 6.02727 8.71415C5.2459 8.15587 4.37076 7.34688 3.91375 6.76033C2.84238 5.38523 2.17303 3.79464 1.94553 2.08336L1.9159 1.86065H12.0023H22.0888L22.0592 2.08336Z" fill="white"/>
</svg>
